<!--
  Copyright (C) 2022 Budislav Stepanov, Joshua Wade

  This file is part of Anthem.

  Anthem is free software: you can redistribute it and/or modify
  it under the terms of the GNU General Public License as published by
  the Free Software Foundation, either version 3 of the License, or
  (at your option) any later version.

  Anthem is distributed in the hope that it will be useful,
  but WITHOUT ANY WARRANTY; without even the implied warranty of
  MERCHANTABILITY or FITNESS FOR A PARTICULAR PURPOSE. See the GNU
  General Public License for more details.

  You should have received a copy of the GNU General Public License
  along with Anthem. If not, see <https://www.gnu.org/licenses/>.
-->

<svg width="16" height="16" viewBox="0 0 16 16" fill="none" xmlns="http://www.w3.org/2000/svg">
<path fill-rule="evenodd" clip-rule="evenodd" d="M4 0C4.55228 0 5 0.447715 5 1V12.5858L6.29289 11.2929C6.68342 10.9024 7.31658 10.9024 7.70711 11.2929C8.09763 11.6834 8.09763 12.3166 7.70711 12.7071L4.70711 15.7071C4.31658 16.0976 3.68342 16.0976 3.29289 15.7071L0.292893 12.7071C-0.0976311 12.3166 -0.0976311 11.6834 0.292893 11.2929C0.683417 10.9024 1.31658 10.9024 1.70711 11.2929L3 12.5858V1C3 0.447715 3.44772 0 4 0Z" fill="#9DB9CC"/>
<path fill-rule="evenodd" clip-rule="evenodd" d="M12 16C11.4477 16 11 15.5523 11 15V3.41421L9.70711 4.70711C9.31658 5.09763 8.68342 5.09763 8.29289 4.70711C7.90237 4.31658 7.90237 3.68342 8.29289 3.29289L11.2929 0.292893C11.6834 -0.0976315 12.3166 -0.0976315 12.7071 0.292893L15.7071 3.29289C16.0976 3.68342 16.0976 4.31658 15.7071 4.70711C15.3166 5.09763 14.6834 5.09763 14.2929 4.70711L13 3.41421V15C13 15.5523 12.5523 16 12 16Z" fill="#9DB9CC"/>
</svg>
