<!--
  Copyright (C) 2022 Budislav Stepanov, Joshua Wade

  This file is part of Anthem.

  Anthem is free software: you can redistribute it and/or modify
  it under the terms of the GNU General Public License as published by
  the Free Software Foundation, either version 3 of the License, or
  (at your option) any later version.

  Anthem is distributed in the hope that it will be useful,
  but WITHOUT ANY WARRANTY; without even the implied warranty of
  MERCHANTABILITY or FITNESS FOR A PARTICULAR PURPOSE. See the GNU
  General Public License for more details.

  You should have received a copy of the GNU General Public License
  along with Anthem. If not, see <https://www.gnu.org/licenses/>.
-->

<svg width="12" height="11" viewBox="0 0 12 11" fill="none" xmlns="http://www.w3.org/2000/svg">
<path d="M0 10.5C0 10.2239 0.223858 10 0.5 10H6V11H0.5C0.223858 11 0 10.7761 0 10.5Z" fill="#9DB9CC"/>
<path d="M6 9C6 8.44772 6.44772 8 7 8H11C11.5523 8 12 8.44772 12 9V10C12 10.5523 11.5523 11 11 11H6V9Z" fill="#9DB9CC"/>
<path d="M0 5.5C0 5.22386 0.223858 5 0.5 5H6V6H0.5C0.223858 6 0 5.77614 0 5.5Z" fill="#9DB9CC"/>
<path d="M6 5C6 4.44772 6.44772 4 7 4H11C11.5523 4 12 4.44772 12 5V6C12 6.55228 11.5523 7 11 7H7C6.44772 7 6 6.55228 6 6V5Z" fill="#9DB9CC"/>
<path d="M0 0.5C0 0.223858 0.223858 0 0.5 0H6V1H0.5C0.223858 1 0 0.776142 0 0.5Z" fill="#9DB9CC"/>
<path d="M6 0H11C11.5523 0 12 0.447715 12 1V2C12 2.55228 11.5523 3 11 3H7C6.44772 3 6 2.55228 6 2V0Z" fill="#9DB9CC"/>
</svg>
