<!--
    Copyright (C) 2021 Joshua Wade, Budislav Stepanov

    This file is part of Anthem.

    Anthem is free software: you can redistribute it and/or modify
    it under the terms of the GNU General Public License as published by
    the Free Software Foundation, either version 3 of the License, or
    (at your option) any later version.

    Anthem is distributed in the hope that it will be useful,
    but WITHOUT ANY WARRANTY; without even the implied warranty of
    MERCHANTABILITY or FITNESS FOR A PARTICULAR PURPOSE. See the GNU
    General Public License for more details.

    You should have received a copy of the GNU General Public License
    along with Anthem. If not, see <https://www.gnu.org/licenses/>.
-->

<svg width="16" height="16" viewBox="0 0 16 16" fill="none" xmlns="http://www.w3.org/2000/svg">
<path fill-rule="evenodd" clip-rule="evenodd" d="M4.4453 1.83216C3.98577 1.5258 3.8616 0.904935 4.16795 0.445406C4.4743 -0.0141227 5.09517 -0.138296 5.5547 0.168056L8.53806 2.15696C8.59285 2.19188 8.64464 2.23244 8.6925 2.27846C8.89285 2.47026 8.99983 2.73303 9.00011 3C9.00025 3.1383 8.97175 3.27773 8.91276 3.40899C8.86117 3.52446 8.78726 3.63112 8.69244 3.72187C8.6446 3.76787 8.59282 3.80841 8.53806 3.84331L5.55469 5.83216C5.09516 6.13851 4.47429 6.01433 4.16794 5.55479C3.8616 5.09526 3.98578 4.47439 4.44531 4.16805L4.6973 4.00006H2V14.0001H14V4.00006H11V2.00006H14C15.1046 2.00006 16 2.89549 16 4.00006V14.0001C16 15.1046 15.1046 16.0001 14 16.0001H2C0.895431 16.0001 0 15.1046 0 14.0001V4.00006C0 2.89549 0.895431 2.00006 2 2.00006H4.69716L4.4453 1.83216Z" fill="white"/>
</svg>
