<!--
    Copyright (C) 2021 Joshua Wade, Budislav Stepanov

    This file is part of Anthem.

    Anthem is free software: you can redistribute it and/or modify
    it under the terms of the GNU General Public License as published by
    the Free Software Foundation, either version 3 of the License, or
    (at your option) any later version.

    Anthem is distributed in the hope that it will be useful,
    but WITHOUT ANY WARRANTY; without even the implied warranty of
    MERCHANTABILITY or FITNESS FOR A PARTICULAR PURPOSE. See the GNU
    General Public License for more details.

    You should have received a copy of the GNU General Public License
    along with Anthem. If not, see <https://www.gnu.org/licenses/>.
-->

<svg width="16" height="16" viewBox="0 0 16 16" fill="none" xmlns="http://www.w3.org/2000/svg">
<path fill-rule="evenodd" clip-rule="evenodd" d="M8.4453 1.8321C7.98577 1.52574 7.8616 0.904874 8.16795 0.445345C8.4743 -0.0141836 9.09517 -0.138357 9.5547 0.167995L12.5361 2.1556C12.5977 2.19464 12.6555 2.24079 12.7082 2.29379C12.7784 2.36398 12.8364 2.44309 12.8818 2.52803C12.9127 2.5856 12.9381 2.64655 12.9573 2.71018C12.9862 2.80529 13.0002 2.90305 13.0001 3.00026C12.9999 3.16428 12.9595 3.32672 12.8818 3.47208C12.836 3.55781 12.7773 3.6376 12.7063 3.70827C12.654 3.76045 12.5969 3.80594 12.5361 3.8445L9.5547 5.8321C9.09517 6.13845 8.4743 6.01427 8.16795 5.55475C7.8616 5.09522 7.98577 4.47435 8.4453 4.16799L8.69722 4.00005H4C3.44771 4.00005 3 3.55233 3 3.00005C3 2.44776 3.44771 2.00005 4 2.00005H8.69722L8.4453 1.8321Z" fill="white" />
<rect x="1" y="9" width="14" height="6" rx="1" stroke="white" stroke-width="2" stroke.linecap="round" />
<path d="M6 12H10" stroke="white" stroke-width="2" stroke-linecap="round"/>
</svg>
