<!--
    Copyright (C) 2021 Joshua Wade, Budislav Stepanov

    This file is part of Anthem.

    Anthem is free software: you can redistribute it and/or modify
    it under the terms of the GNU General Public License as published by
    the Free Software Foundation, either version 3 of the License, or
    (at your option) any later version.

    Anthem is distributed in the hope that it will be useful,
    but WITHOUT ANY WARRANTY; without even the implied warranty of
    MERCHANTABILITY or FITNESS FOR A PARTICULAR PURPOSE. See the GNU
    General Public License for more details.

    You should have received a copy of the GNU General Public License
    along with Anthem. If not, see <https://www.gnu.org/licenses/>.
-->

<svg width="16" height="16" viewBox="0 0 16 16" fill="none" xmlns="http://www.w3.org/2000/svg">
<path fill-rule="evenodd" clip-rule="evenodd" d="M10.1464 1.85355C9.95118 1.65829 9.95118 1.34171 10.1464 1.14645C10.3417 0.951184 10.6583 0.951184 10.8536 1.14645L14.8503 5.14322C14.8619 5.15462 14.873 5.16658 14.8834 5.17906C14.9134 5.21478 14.9376 5.25371 14.956 5.29461C14.9843 5.35726 15 5.42678 15 5.49997M15 5.503C14.9996 5.56539 14.9878 5.62507 14.9666 5.68006C14.9422 5.74328 14.9045 5.80256 14.8536 5.85355L10.8536 9.85355C10.6583 10.0488 10.3417 10.0488 10.1464 9.85355C9.95118 9.65829 9.95118 9.34171 10.1464 9.14645L13.2963 5.99657C10.8313 5.98992 8.23048 6.02799 6.129 6.89934C4.92771 7.39743 3.909 8.16295 3.18426 9.34694C2.45615 10.5364 2 12.1889 2 14.5C2 14.7761 1.77614 15 1.5 15C1.22386 15 0.999997 14.7761 0.999997 14.5C0.999997 12.061 1.48134 10.2135 2.33136 8.82487C3.18474 7.43073 4.38478 6.54 5.74599 5.9756C8.03588 5.02613 10.8361 4.9871 13.2886 4.99569L10.1464 1.85355" fill="#9DB9CC"/>
</svg>
