<!--
    Copyright (C) 2021 Joshua Wade, Budislav Stepanov

    This file is part of Anthem.

    Anthem is free software: you can redistribute it and/or modify
    it under the terms of the GNU General Public License as published by
    the Free Software Foundation, either version 3 of the License, or
    (at your option) any later version.

    Anthem is distributed in the hope that it will be useful,
    but WITHOUT ANY WARRANTY; without even the implied warranty of
    MERCHANTABILITY or FITNESS FOR A PARTICULAR PURPOSE. See the GNU
    General Public License for more details.

    You should have received a copy of the GNU General Public License
    along with Anthem. If not, see <https://www.gnu.org/licenses/>.
-->

<svg width="16" height="16" viewBox="0 0 16 16" fill="none" xmlns="http://www.w3.org/2000/svg">
<path fill-rule="evenodd" clip-rule="evenodd" d="M6.70711 1.70711C7.09763 1.31658 7.09763 0.683417 6.70711 0.292893C6.31658 -0.0976311 5.68342 -0.0976311 5.29289 0.292893L0.292893 5.29289C-0.0976311 5.68342 -0.0976311 6.31658 0.292893 6.70711L5.29289 11.7071C5.68342 12.0976 6.31658 12.0976 6.70711 11.7071C7.09763 11.3166 7.09763 10.6834 6.70711 10.2929L3.39925 6.98504C4.27352 6.97151 5.17051 6.95923 6.09766 6.9991C7.50522 7.05964 8.85148 7.23973 10.019 7.6845C11.1683 8.12231 12.1341 8.81173 12.8261 9.90861C13.5257 11.0173 14 12.6289 14 15C14 15.5523 14.4477 16 15 16C15.5523 16 16 15.5523 16 15C16 12.3711 15.4743 10.3577 14.5176 8.84138C13.5534 7.31326 12.2067 6.37769 10.731 5.81552C9.27352 5.2603 7.68228 5.06541 6.18359 5.00095C5.25079 4.96083 4.30192 4.97099 3.43027 4.98394L6.70711 1.70711Z" fill="white"/>
</svg>
