<!--
    Copyright (C) 2021 Joshua Wade, Budislav Stepanov

    This file is part of Anthem.

    Anthem is free software: you can redistribute it and/or modify
    it under the terms of the GNU General Public License as published by
    the Free Software Foundation, either version 3 of the License, or
    (at your option) any later version.

    Anthem is distributed in the hope that it will be useful,
    but WITHOUT ANY WARRANTY; without even the implied warranty of
    MERCHANTABILITY or FITNESS FOR A PARTICULAR PURPOSE. See the GNU
    General Public License for more details.

    You should have received a copy of the GNU General Public License
    along with Anthem. If not, see <https://www.gnu.org/licenses/>.
-->

<svg width="16" height="16" viewBox="0 0 16 16" fill="none" xmlns="http://www.w3.org/2000/svg">
<path fill-rule="evenodd" clip-rule="evenodd" d="M5.85356 1.85355C6.04882 1.65829 6.04882 1.34171 5.85356 1.14645C5.65829 0.951184 5.34171 0.951184 5.14645 1.14645L1.14967 5.14322C1.13807 5.15462 1.12702 5.16658 1.11656 5.17906C1.08659 5.21478 1.0624 5.25371 1.04399 5.29461C1.01573 5.35726 1 5.42678 1 5.49997M1.00001 5.503C1.00038 5.56539 1.01218 5.62507 1.03342 5.68006C1.05777 5.74328 1.09545 5.80256 1.14645 5.85355L5.14645 9.85355C5.34171 10.0488 5.65829 10.0488 5.85356 9.85355C6.04882 9.65829 6.04882 9.34171 5.85356 9.14645L2.70368 5.99657C5.16874 5.98992 7.76952 6.02799 9.871 6.89934C11.0723 7.39743 12.091 8.16295 12.8157 9.34694C13.5438 10.5364 14 12.1889 14 14.5C14 14.7761 14.2239 15 14.5 15C14.7761 15 15 14.7761 15 14.5C15 12.061 14.5187 10.2135 13.6686 8.82487C12.8153 7.43073 11.6152 6.54 10.254 5.9756C7.96412 5.02613 5.16387 4.9871 2.71141 4.99569L5.85356 1.85355" fill="#9DB9CC"/>
</svg>
