<svg width="16" height="16" viewBox="0 0 16 16" fill="none" xmlns="http://www.w3.org/2000/svg">
<path fill-rule="evenodd" clip-rule="evenodd" d="M3.5 3C3.22386 3 3 3.22386 3 3.5C3 3.77614 3.22386 4 3.5 4H9.5C9.77614 4 10 3.77614 10 3.5C10 3.22386 9.77614 3 9.5 3H3.5ZM3.5 7C3.22386 7 3 7.22386 3 7.5C3 7.77614 3.22386 8 3.5 8H9.5C9.77614 8 10 7.77614 10 7.5C10 7.22386 9.77614 7 9.5 7H3.5ZM3 11.5C3 11.2239 3.22386 11 3.5 11H9.5C9.77614 11 10 11.2239 10 11.5C10 11.7761 9.77614 12 9.5 12H3.5C3.22386 12 3 11.7761 3 11.5ZM10.5 4C10.2239 4 10 4.22386 10 4.5C10 4.77614 10.2239 5 10.5 5H12.5C12.7761 5 13 4.77614 13 4.5C13 4.22386 12.7761 4 12.5 4H10.5ZM10 8.5C10 8.22386 10.2239 8 10.5 8H12.5C12.7761 8 13 8.22386 13 8.5C13 8.77614 12.7761 9 12.5 9H10.5C10.2239 9 10 8.77614 10 8.5ZM10.5 12C10.2239 12 10 12.2239 10 12.5C10 12.7761 10.2239 13 10.5 13H12.5C12.7761 13 13 12.7761 13 12.5C13 12.2239 12.7761 12 12.5 12H10.5Z" fill="#CFCFCF"/>
</svg>
