<svg width="16" height="16" viewBox="0 0 16 16" fill="none" xmlns="http://www.w3.org/2000/svg">
<path d="M1.5 12.5V14.5C1.5 15.0523 1.94772 15.5 2.5 15.5H14.5C15.0523 15.5 15.5 15.0523 15.5 14.5V12.5" stroke="#9DB9CC" stroke-linecap="round"/>
<path fill-rule="evenodd" clip-rule="evenodd" d="M11.1464 5.14641C11.3417 4.95114 11.6583 4.95114 11.8536 5.14641C12.0488 5.34167 12.0488 5.65825 11.8536 5.85351L8.85355 8.85351C8.65829 9.04878 8.34171 9.04878 8.14645 8.85351L5.14645 5.85351C4.95118 5.65825 4.95118 5.34167 5.14645 5.14641C5.34171 4.95114 5.65829 4.95114 5.85355 5.14641L8 7.29285L8 0.5C8 0.223857 8.22386 -1.65061e-07 8.5 -1.5299e-07C8.77614 -1.4092e-07 9 0.223857 9 0.5L9 7.29285L11.1464 5.14641Z" fill="#9DB9CC"/>
</svg>
