<!--
  Copyright (C) 2022 Budislav Stepanov, Joshua Wade

  This file is part of Anthem.

  Anthem is free software: you can redistribute it and/or modify
  it under the terms of the GNU General Public License as published by
  the Free Software Foundation, either version 3 of the License, or
  (at your option) any later version.

  Anthem is distributed in the hope that it will be useful,
  but WITHOUT ANY WARRANTY; without even the implied warranty of
  MERCHANTABILITY or FITNESS FOR A PARTICULAR PURPOSE. See the GNU
  General Public License for more details.

  You should have received a copy of the GNU General Public License
  along with Anthem. If not, see <https://www.gnu.org/licenses/>.
-->

<svg width="16" height="16" viewBox="0 0 16 16" fill="none" xmlns="http://www.w3.org/2000/svg">
<path d="M3 2.5C3 2.22386 2.77614 2 2.5 2C2.22386 2 2 2.22386 2 2.5L3 2.5ZM2.5 6.5L2 6.5C2 6.77614 2.22386 7 2.5 7L2.5 6.5ZM6.5 7C6.77614 7 7 6.77614 7 6.5C7 6.22386 6.77614 6 6.5 6V7ZM2 2.5L2 6.5L3 6.5L3 2.5L2 2.5ZM2.5 7L6.5 7V6L2.5 6L2.5 7Z" fill="#9DB9CC"/>
<path d="M2.4767 6.26026C2.95289 5.19225 3.75709 4.30381 4.77253 3.72392C5.78797 3.14403 6.96181 2.90288 8.12363 3.03547C9.28545 3.16806 10.3748 3.66749 11.2334 4.46126C12.0921 5.25503 12.6755 6.30182 12.8988 7.44966C13.1221 8.5975 12.9738 9.78663 12.4753 10.8444C11.9768 11.9022 11.1542 12.7736 10.1269 13.3321C9.0995 13.8906 7.92087 14.1072 6.76208 13.9503C5.6033 13.7934 4.52467 13.2712 3.6828 12.4597L4.38074 11.7357C5.06868 12.3989 5.95009 12.8255 6.897 12.9537C7.84392 13.0819 8.80705 12.905 9.64657 12.4486C10.4861 11.9923 11.1583 11.2802 11.5656 10.4158C11.9729 9.55139 12.0941 8.57967 11.9117 7.6417C11.7292 6.70374 11.2525 5.84834 10.5508 5.19971C9.84914 4.55107 8.959 4.14295 8.00961 4.0346C7.06021 3.92626 6.101 4.12332 5.27122 4.59718C4.44144 5.07104 3.78428 5.79704 3.39516 6.66977L2.4767 6.26026Z" fill="#9DB9CC"/>
</svg>
