<!--
    Copyright (C) 2021 Joshua Wade, Budislav Stepanov

    This file is part of Anthem.

    Anthem is free software: you can redistribute it and/or modify
    it under the terms of the GNU General Public License as published by
    the Free Software Foundation, either version 3 of the License, or
    (at your option) any later version.

    Anthem is distributed in the hope that it will be useful,
    but WITHOUT ANY WARRANTY; without even the implied warranty of
    MERCHANTABILITY or FITNESS FOR A PARTICULAR PURPOSE. See the GNU
    General Public License for more details.

    You should have received a copy of the GNU General Public License
    along with Anthem. If not, see <https://www.gnu.org/licenses/>.
-->

<svg width="16" height="16" viewBox="0 0 16 16" fill="none" xmlns="http://www.w3.org/2000/svg">
<path d="M1 7L3 5L6 9L8 6L10.5 7.5L13 6.42857L15 7.5" stroke="white" stroke-width="2" stroke-linecap="round" stroke-linejoin="round"/>
<path fill-rule="evenodd" clip-rule="evenodd" d="M3 12C2.44772 12 2 12.4477 2 13C2 13.5523 2.44772 14 3 14C3.55228 14 4 13.5523 4 13C4 12.4477 3.55228 12 3 12ZM3 10C4.30622 10 5.41746 10.8348 5.82929 12L10.1707 12C10.5825 10.8348 11.6938 10 13 10C14.6569 10 16 11.3431 16 13C16 14.6569 14.6569 16 13 16C11.6938 16 10.5825 15.1652 10.1707 14H5.82929C5.41746 15.1652 4.30622 16 3 16C1.34315 16 0 14.6569 0 13C0 11.3431 1.34315 10 3 10ZM12 13C12 13.5523 12.4477 14 13 14C13.5523 14 14 13.5523 14 13C14 12.4477 13.5523 12 13 12C12.4477 12 12 12.4477 12 13Z" fill="white"/>
<path d="M0 1C0 0.447715 0.447715 0 1 0H8V2H1C0.447715 2 0 1.55228 0 1V1Z" fill="white"/>
<path d="M8 0H15C15.5523 0 16 0.447715 16 1V3C16 3.55228 15.5523 4 15 4H9C8.44772 4 8 3.55228 8 3V0Z" fill="white"/>
</svg>
