<!--
    Copyright (C) 2021 Joshua Wade, Budislav Stepanov

    This file is part of Anthem.

    Anthem is free software: you can redistribute it and/or modify
    it under the terms of the GNU General Public License as published by
    the Free Software Foundation, either version 3 of the License, or
    (at your option) any later version.

    Anthem is distributed in the hope that it will be useful,
    but WITHOUT ANY WARRANTY; without even the implied warranty of
    MERCHANTABILITY or FITNESS FOR A PARTICULAR PURPOSE. See the GNU
    General Public License for more details.

    You should have received a copy of the GNU General Public License
    along with Anthem. If not, see <https://www.gnu.org/licenses/>.
-->

<svg width="8" height="8" viewBox="0 0 8 8" fill="none" xmlns="http://www.w3.org/2000/svg">
<path fill-rule="evenodd" clip-rule="evenodd" d="M4.99999 1C4.99999 0.447715 4.55228 0 3.99999 0C3.44771 0 2.99999 0.447715 2.99999 1V3H0.999995C0.44771 3 -5.48363e-06 3.44772 -5.48363e-06 4C-5.48363e-06 4.55228 0.44771 5 0.999995 5H2.99999V7C2.99999 7.55228 3.44771 8 3.99999 8C4.55228 8 4.99999 7.55228 4.99999 7V5H6.99999C7.55228 5 7.99999 4.55228 7.99999 4C7.99999 3.44772 7.55228 3 6.99999 3H4.99999V1Z" fill="white"/>
</svg>
