<!--
  Copyright (C) 2021 - 2024 Budislav Stepanov

  This file is part of Anthem.

  Anthem is free software: you can redistribute it and/or modify
  it under the terms of the GNU General Public License as published by
  the Free Software Foundation, either version 3 of the License, or
  (at your option) any later version.

  Anthem is distributed in the hope that it will be useful,
  but WITHOUT ANY WARRANTY; without even the implied warranty of
  MERCHANTABILITY or FITNESS FOR A PARTICULAR PURPOSE. See the GNU
  General Public License for more details.

  You should have received a copy of the GNU General Public License
  along with Anthem. If not, see <https://www.gnu.org/licenses/>.
-->

<svg width="12" height="12" viewBox="0 0 12 12" fill="none" xmlns="http://www.w3.org/2000/svg">
<path fill-rule="evenodd" clip-rule="evenodd" d="M6 2.5C6 2.22386 5.77614 2 5.5 2C5.22386 2 5 2.22386 5 2.5V5H2.5C2.22386 5 2 5.22386 2 5.5C2 5.77614 2.22386 6 2.5 6H5V8.5C5 8.77614 5.22386 9 5.5 9C5.77614 9 6 8.77614 6 8.5V6H8.5C8.77614 6 9 5.77614 9 5.5C9 5.22386 8.77614 5 8.5 5H6V2.5Z" fill="#CFCFCF"/>
</svg>
