<!--
    Copyright (C) 2021 Joshua Wade, Budislav Stepanov

    This file is part of Anthem.

    Anthem is free software: you can redistribute it and/or modify
    it under the terms of the GNU General Public License as published by
    the Free Software Foundation, either version 3 of the License, or
    (at your option) any later version.

    Anthem is distributed in the hope that it will be useful,
    but WITHOUT ANY WARRANTY; without even the implied warranty of
    MERCHANTABILITY or FITNESS FOR A PARTICULAR PURPOSE. See the GNU
    General Public License for more details.

    You should have received a copy of the GNU General Public License
    along with Anthem. If not, see <https://www.gnu.org/licenses/>.
-->

<svg width="8" height="8" viewBox="0 0 8 8" fill="none" xmlns="http://www.w3.org/2000/svg">
<path fill-rule="evenodd" clip-rule="evenodd" d="M4.42476 6.90553C4.5278 6.8573 4.62366 6.79095 4.7072 6.7072C4.74665 6.66785 4.78224 6.62576 4.81389 6.58148L7.8 2.6C8.13137 2.15817 8.04183 1.53137 7.6 1.2C7.15817 0.868631 6.53137 0.958175 6.2 1.4L4 4.33334L1.8 1.4C1.46863 0.958175 0.841828 0.868631 0.4 1.2C-0.0418278 1.53137 -0.131371 2.15817 0.2 2.6L3.1861 6.58147C3.21776 6.62576 3.25335 6.66784 3.2928 6.7072C3.3761 6.7907 3.47164 6.85691 3.57433 6.9051C3.84693 7.03365 4.15961 7.02962 4.42476 6.90553Z" fill="white"/>
</svg>
