<!--
  Copyright (C) 2021 - 2024 Budislav Stepanov

  This file is part of Anthem.

  Anthem is free software: you can redistribute it and/or modify
  it under the terms of the GNU General Public License as published by
  the Free Software Foundation, either version 3 of the License, or
  (at your option) any later version.

  Anthem is distributed in the hope that it will be useful,
  but WITHOUT ANY WARRANTY; without even the implied warranty of
  MERCHANTABILITY or FITNESS FOR A PARTICULAR PURPOSE. See the GNU
  General Public License for more details.

  You should have received a copy of the GNU General Public License
  along with Anthem. If not, see <https://www.gnu.org/licenses/>.
-->

<svg width="12" height="12" viewBox="0 0 12 12" fill="none" xmlns="http://www.w3.org/2000/svg">
<path d="M2.85355 2.14645C2.65829 1.95118 2.34171 1.95118 2.14645 2.14645C1.95118 2.34171 1.95118 2.65829 2.14645 2.85355L2.85355 2.14645ZM9.14645 9.85355C9.34171 10.0488 9.65829 10.0488 9.85355 9.85355C10.0488 9.65829 10.0488 9.34171 9.85355 9.14645L9.14645 9.85355ZM2.14645 9.14645C1.95118 9.34171 1.95118 9.65829 2.14645 9.85355C2.34171 10.0488 2.65829 10.0488 2.85355 9.85355L2.14645 9.14645ZM9.85355 2.85355C10.0488 2.65829 10.0488 2.34171 9.85355 2.14645C9.65829 1.95118 9.34171 1.95118 9.14645 2.14645L9.85355 2.85355ZM2.14645 2.85355L9.14645 9.85355L9.85355 9.14645L2.85355 2.14645L2.14645 2.85355ZM2.85355 9.85355L9.85355 2.85355L9.14645 2.14645L2.14645 9.14645L2.85355 9.85355Z" fill="#CFCFCF"/>
</svg>
