<!--
    Copyright (C) 2021 Joshua Wade, Budislav Stepanov

    This file is part of Anthem.

    Anthem is free software: you can redistribute it and/or modify
    it under the terms of the GNU General Public License as published by
    the Free Software Foundation, either version 3 of the License, or
    (at your option) any later version.

    Anthem is distributed in the hope that it will be useful,
    but WITHOUT ANY WARRANTY; without even the implied warranty of
    MERCHANTABILITY or FITNESS FOR A PARTICULAR PURPOSE. See the GNU
    General Public License for more details.

    You should have received a copy of the GNU General Public License
    along with Anthem. If not, see <https://www.gnu.org/licenses/>.
-->

<svg width="16" height="16" viewBox="0 0 16 16" fill="none" xmlns="http://www.w3.org/2000/svg">
<path fill-rule="evenodd" clip-rule="evenodd" d="M3 0H4H5C7.20914 0 9 1.79086 9 4V7H11C12.1046 7 13 7.89543 13 9V14H15C15.5523 14 16 14.4477 16 15C16 15.5523 15.5523 16 15 16H13C11.8954 16 11 15.1046 11 14V9H9V11C9 13.2091 7.20914 15 5 15H4H3V14V11H1C0.447715 11 0 10.5523 0 10C0 9.44771 0.447715 9 1 9H3V6H1C0.447715 6 0 5.55228 0 5C0 4.44772 0.447715 4 1 4H3V1V0ZM5 10V13C6.10457 13 7 12.1046 7 11V4C7 2.89543 6.10457 2 5 2V5V10Z" fill="white"/>
</svg>
