<!--
  Copyright (C) 2022 Budislav Stepanov, Joshua Wade

  This file is part of Anthem.

  Anthem is free software: you can redistribute it and/or modify
  it under the terms of the GNU General Public License as published by
  the Free Software Foundation, either version 3 of the License, or
  (at your option) any later version.

  Anthem is distributed in the hope that it will be useful,
  but WITHOUT ANY WARRANTY; without even the implied warranty of
  MERCHANTABILITY or FITNESS FOR A PARTICULAR PURPOSE. See the GNU
  General Public License for more details.

  You should have received a copy of the GNU General Public License
  along with Anthem. If not, see <https://www.gnu.org/licenses/>.
-->

<svg width="16" height="16" viewBox="0 0 16 16" fill="none" xmlns="http://www.w3.org/2000/svg">
<path fill-rule="evenodd" clip-rule="evenodd" d="M11 4C11 3.44772 11.4477 3 12 3C12.5523 3 13 3.44772 13 4C13 4.55228 12.5523 5 12 5C11.4477 5 11 4.55228 11 4ZM10.0664 4.51285C10.2928 5.36894 11.0727 6 12 6C13.1046 6 14 5.10457 14 4C14 2.89543 13.1046 2 12 2C11.0639 2 10.2781 2.64307 10.0601 3.51152C6.18034 3.71638 3.70756 6.62703 3.51247 10.0598C2.64353 10.2775 2 11.0636 2 12C2 13.1046 2.89543 14 4 14C5.10457 14 6 13.1046 6 12C6 11.073 5.36939 10.2934 4.51377 10.0666C4.70082 7.13649 6.78288 4.70944 10.0664 4.51285ZM3 12C3 11.4477 3.44772 11 4 11C4.55228 11 5 11.4477 5 12C5 12.5523 4.55228 13 4 13C3.44772 13 3 12.5523 3 12Z" fill="#9DB9CC"/>
<circle cx="10.5" cy="10.5" r="3" stroke="#9DB9CC"/>
<rect x="10" y="8" width="1" height="3" rx="0.5" fill="#9DB9CC"/>
</svg>
