<!--
    Copyright (C) 2021 Joshua Wade, Budislav Stepanov

    This file is part of Anthem.

    Anthem is free software: you can redistribute it and/or modify
    it under the terms of the GNU General Public License as published by
    the Free Software Foundation, either version 3 of the License, or
    (at your option) any later version.

    Anthem is distributed in the hope that it will be useful,
    but WITHOUT ANY WARRANTY; without even the implied warranty of
    MERCHANTABILITY or FITNESS FOR A PARTICULAR PURPOSE. See the GNU
    General Public License for more details.

    You should have received a copy of the GNU General Public License
    along with Anthem. If not, see <https://www.gnu.org/licenses/>.
-->

<svg width="16" height="16" viewBox="0 0 16 16" fill="none" xmlns="http://www.w3.org/2000/svg">
<path fill-rule="evenodd" clip-rule="evenodd" d="M12 3C12 2.44772 12.4477 2 13 2C13.5523 2 14 2.44772 14 3C14 3.55228 13.5523 4 13 4C12.4477 4 12 3.55228 12 3ZM10.1809 4.02828C8.64845 4.13728 7.53196 4.55103 6.71084 5.08727C5.74758 5.71634 5.1243 6.55756 4.71795 7.42443C4.30859 8.29774 4.12598 9.18478 4.04817 9.86384C4.03544 9.97498 4.0256 10.0798 4.01804 10.1771C5.1738 10.594 6 11.7005 6 13C6 14.6569 4.65685 16 3 16C1.34315 16 0 14.6569 0 13C0 11.6886 0.84145 10.5737 2.0139 10.1658C2.02408 10.0059 2.03917 9.82822 2.06118 9.63616C2.15524 8.81522 2.37889 7.70226 2.90703 6.57557C3.43818 5.44244 4.28366 4.28366 5.61727 3.41273C6.78526 2.64996 8.27704 2.14114 10.1619 2.02522C10.5665 0.846873 11.6844 0 13 0C14.6569 0 16 1.34315 16 3C16 4.65685 14.6569 6 13 6C11.7044 6 10.6006 5.17867 10.1809 4.02828ZM3.00535 12L2.99367 12C2.4443 12.0034 2 12.4498 2 13C2 13.5523 2.44772 14 3 14C3.55228 14 4 13.5523 4 13C4 12.4495 3.55517 12.0029 3.00535 12Z" fill="white"/>
<circle cx="11.5" cy="11.5" r="3.5" stroke="white" stroke-width="2"/>
<circle cx="11.5" cy="10.5" r="0.5" fill="white"/>
</svg>
