<!--
  Copyright (C) 2021 - 2024 Budislav Stepanov

  This file is part of Anthem.

  Anthem is free software: you can redistribute it and/or modify
  it under the terms of the GNU General Public License as published by
  the Free Software Foundation, either version 3 of the License, or
  (at your option) any later version.

  Anthem is distributed in the hope that it will be useful,
  but WITHOUT ANY WARRANTY; without even the implied warranty of
  MERCHANTABILITY or FITNESS FOR A PARTICULAR PURPOSE. See the GNU
  General Public License for more details.

  You should have received a copy of the GNU General Public License
  along with Anthem. If not, see <https://www.gnu.org/licenses/>.
-->

<svg width="16" height="16" viewBox="0 0 16 16" fill="none" xmlns="http://www.w3.org/2000/svg">
<path fill-rule="evenodd" clip-rule="evenodd" d="M12 3C11.4477 3 11 3.44772 11 4C11 4.55228 11.4477 5 12 5C12.5523 5 13 4.55228 13 4C13 3.44772 12.5523 3 12 3ZM10 4C10 2.89543 10.8954 2 12 2C13.1046 2 14 2.89543 14 4C14 5.10457 13.1046 6 12 6C11.6291 6 11.2818 5.89904 10.984 5.72309L5.72309 10.984C5.89904 11.2818 6 11.6291 6 12C6 13.1046 5.10457 14 4 14C2.89543 14 2 13.1046 2 12C2 10.8954 2.89543 10 4 10C4.3709 10 4.71823 10.101 5.01598 10.2769L10.2769 5.01598C10.101 4.71823 10 4.3709 10 4ZM4 11C3.44772 11 3 11.4477 3 12C3 12.5523 3.44772 13 4 13C4.55228 13 5 12.5523 5 12C5 11.4477 4.55228 11 4 11Z" fill="#CFCFCF"/>
</svg>
