<!--
    Copyright (C) 2021 Joshua Wade, Budislav Stepanov

    This file is part of Anthem.

    Anthem is free software: you can redistribute it and/or modify
    it under the terms of the GNU General Public License as published by
    the Free Software Foundation, either version 3 of the License, or
    (at your option) any later version.

    Anthem is distributed in the hope that it will be useful,
    but WITHOUT ANY WARRANTY; without even the implied warranty of
    MERCHANTABILITY or FITNESS FOR A PARTICULAR PURPOSE. See the GNU
    General Public License for more details.

    You should have received a copy of the GNU General Public License
    along with Anthem. If not, see <https://www.gnu.org/licenses/>.
-->

<svg width="16" height="16" viewBox="0 0 16 16" fill="none" xmlns="http://www.w3.org/2000/svg">
<path fill-rule="evenodd" clip-rule="evenodd" d="M6 9.5C6 8.11929 7.11929 7 8.5 7C9.88071 7 11 8.11929 11 9.5C11 10.8807 9.88071 12 8.5 12C7.11929 12 6 10.8807 6 9.5ZM8.5 5C6.01472 5 4 7.01472 4 9.5C4 11.9853 6.01472 14 8.5 14C9.38054 14 10.202 13.7471 10.8957 13.31L13.2929 15.7071C13.6834 16.0976 14.3166 16.0976 14.7071 15.7071C15.0976 15.3166 15.0976 14.6834 14.7071 14.2929L12.31 11.8957C12.7471 11.202 13 10.3805 13 9.5C13 7.01472 10.9853 5 8.5 5Z" fill="white"/>
<path fill-rule="evenodd" clip-rule="evenodd" d="M1 0C0.447715 0 0 0.447715 0 1V15C0 15.5523 0.447715 16 1 16H5V14H2V2H5.58579L7.29289 3.70711C7.48043 3.89464 7.73478 4 8 4H14V12H16V3C16 2.44772 15.5523 2 15 2H8.41421L6.70711 0.292893C6.51957 0.105357 6.26522 0 6 0H1Z" fill="white"/>
</svg>
