<!--
  Copyright (C) 2021 - 2024 Budislav Stepanov

  This file is part of Anthem.

  Anthem is free software: you can redistribute it and/or modify
  it under the terms of the GNU General Public License as published by
  the Free Software Foundation, either version 3 of the License, or
  (at your option) any later version.

  Anthem is distributed in the hope that it will be useful,
  but WITHOUT ANY WARRANTY; without even the implied warranty of
  MERCHANTABILITY or FITNESS FOR A PARTICULAR PURPOSE. See the GNU
  General Public License for more details.

  You should have received a copy of the GNU General Public License
  along with Anthem. If not, see <https://www.gnu.org/licenses/>.
-->

<svg width="16" height="16" viewBox="0 0 16 16" fill="none" xmlns="http://www.w3.org/2000/svg">
<path fill-rule="evenodd" clip-rule="evenodd" d="M9 2.42861C9 2.15246 8.77614 1.92861 8.5 1.92861C8.22386 1.92861 8 2.15246 8 2.42861V9.08535C8.15639 9.03008 8.32468 9 8.5 9C8.67532 9 8.84361 9.03008 9 9.08535V2.42861ZM9 11.9146C8.84361 11.9699 8.67532 12 8.5 12C8.32468 12 8.15639 11.9699 8 11.9146V13.5715C8 13.8476 8.22386 14.0715 8.5 14.0715C8.77614 14.0715 9 13.8476 9 13.5715V11.9146Z" fill="#CFCFCF"/>
<path fill-rule="evenodd" clip-rule="evenodd" d="M14 2.42857C14 2.15243 13.7761 1.92857 13.5 1.92857C13.2239 1.92857 13 2.15243 13 2.42857V4.08539C13.1564 4.03011 13.3247 4.00003 13.5 4.00003C13.6753 4.00003 13.8436 4.03011 14 4.08539V2.42857ZM14 6.91468C13.8436 6.96996 13.6753 7.00003 13.5 7.00003C13.3247 7.00003 13.1564 6.96996 13 6.91468V13.5714C13 13.8476 13.2239 14.0714 13.5 14.0714C13.7761 14.0714 14 13.8476 14 13.5714V6.91468Z" fill="#CFCFCF"/>
<path fill-rule="evenodd" clip-rule="evenodd" d="M4 2.42857C4 2.15243 3.77614 1.92857 3.5 1.92857C3.22386 1.92857 3 2.15243 3 2.42857V4.08537C3.15639 4.03009 3.32468 4.00002 3.5 4.00002C3.67532 4.00002 3.84361 4.03009 4 4.08537V2.42857ZM4 6.91466C3.84361 6.96994 3.67532 7.00002 3.5 7.00002C3.32468 7.00002 3.15639 6.96994 3 6.91466V13.5714C3 13.8476 3.22386 14.0714 3.5 14.0714C3.77614 14.0714 4 13.8476 4 13.5714V6.91466Z" fill="#CFCFCF"/>
<circle cx="8.5" cy="10.5" r="1" stroke="#CFCFCF"/>
<circle cx="13.5" cy="5.5" r="1" stroke="#CFCFCF"/>
<circle cx="3.5" cy="5.5" r="1" stroke="#CFCFCF"/>
</svg>
