<svg width="16" height="16" viewBox="0 0 16 16" fill="none" xmlns="http://www.w3.org/2000/svg">
<path fill-rule="evenodd" clip-rule="evenodd" d="M9.74264 1.14271C9.54586 0.95006 9.23034 0.952796 9.03693 1.14883L1.14407 9.14883C1.0507 9.24347 0.998867 9.37139 1.00002 9.50433C1.00117 9.63727 1.05522 9.76427 1.15022 9.85728L6.25736 14.8573C6.45414 15.0499 6.76966 15.0472 6.96307 14.8512L14.8559 6.85116C14.9493 6.75652 15.0011 6.6286 15 6.49566C14.9988 6.36272 14.9448 6.23572 14.8498 6.14271L9.74264 1.14271ZM4.68788 6.98077L9.39898 2.20571L13.7916 6.50614L9.03468 11.3276L4.68788 6.98077ZM3.98554 7.69264L2.20845 9.49385L6.60102 13.7943L8.33234 12.0395L3.98554 7.69264Z" fill="#9FBCCF"/>
</svg>
