<!--
    Copyright (C) 2021 Joshua Wade, Budislav Stepanov

    This file is part of Anthem.

    Anthem is free software: you can redistribute it and/or modify
    it under the terms of the GNU General Public License as published by
    the Free Software Foundation, either version 3 of the License, or
    (at your option) any later version.

    Anthem is distributed in the hope that it will be useful,
    but WITHOUT ANY WARRANTY; without even the implied warranty of
    MERCHANTABILITY or FITNESS FOR A PARTICULAR PURPOSE. See the GNU
    General Public License for more details.

    You should have received a copy of the GNU General Public License
    along with Anthem. If not, see <https://www.gnu.org/licenses/>.
-->

<svg width="16" height="16" viewBox="0 0 16 16" fill="none" xmlns="http://www.w3.org/2000/svg">
<path fill-rule="evenodd" clip-rule="evenodd" d="M4 8C4.55228 8 5 7.55228 5 7V3.41421L6.29289 4.70711C6.68342 5.09763 7.31658 5.09763 7.70711 4.70711C8.09763 4.31658 8.09763 3.68342 7.70711 3.29289L4.70711 0.292893C4.31658 -0.0976315 3.68342 -0.0976315 3.29289 0.292893L0.292893 3.29289C-0.0976311 3.68342 -0.0976311 4.31658 0.292893 4.70711C0.683417 5.09763 1.31658 5.09763 1.70711 4.70711L3 3.41421V7C3 7.55228 3.44772 8 4 8Z" fill="white"/>
<path fill-rule="evenodd" clip-rule="evenodd" d="M13 9C13 8.44772 12.5523 8 12 8C11.4477 8 11 8.44772 11 9V11H9C8.44772 11 8 11.4477 8 12C8 12.5523 8.44772 13 9 13H11V15C11 15.5523 11.4477 16 12 16C12.5523 16 13 15.5523 13 15V13H15C15.5523 13 16 12.5523 16 12C16 11.4477 15.5523 11 15 11H13V9Z" fill="white"/>
</svg>
