<svg width="16" height="16" viewBox="0 0 16 16" fill="none" xmlns="http://www.w3.org/2000/svg">
<path fill-rule="evenodd" clip-rule="evenodd" d="M6.77145 6.77145C7.54006 6.00284 8 4.88638 8 3.5C8 3.22386 8.22386 3 8.5 3C8.77614 3 9 3.22386 9 3.5C9 4.88638 9.45994 6.00284 10.2286 6.77145C10.9972 7.54006 12.1136 8 13.5 8C13.7761 8 14 8.22386 14 8.5C14 8.77614 13.7761 9 13.5 9C12.1136 9 10.9972 9.45994 10.2286 10.2286C9.45994 10.9972 9 12.1136 9 13.5C9 13.7761 8.77614 14 8.5 14C8.22386 14 8 13.7761 8 13.5C8 12.1136 7.54006 10.9972 6.77145 10.2286C6.00284 9.45994 4.88638 9 3.5 9C3.22386 9 3 8.77614 3 8.5C3 8.22386 3.22386 8 3.5 8C4.88638 8 6.00284 7.54006 6.77145 6.77145ZM8.5 5.98507C8.2483 6.54945 7.90512 7.05199 7.47855 7.47855C7.05199 7.90512 6.54945 8.2483 5.98507 8.5C6.54945 8.7517 7.05199 9.09488 7.47855 9.52145C7.90512 9.94801 8.2483 10.4505 8.5 11.0149C8.7517 10.4505 9.09488 9.94801 9.52145 9.52145C9.94801 9.09488 10.4505 8.7517 11.0149 8.5C10.4505 8.2483 9.94801 7.90512 9.52145 7.47855C9.09488 7.05199 8.7517 6.54945 8.5 5.98507ZM12.1464 4.85355C12.3417 5.04882 12.6583 5.04882 12.8536 4.85355L13.8536 3.85355C14.0488 3.65829 14.0488 3.34171 13.8536 3.14645C13.6583 2.95118 13.3417 2.95118 13.1464 3.14645L12.1464 4.14645C11.9512 4.34171 11.9512 4.65829 12.1464 4.85355ZM4.14645 4.85355C4.34171 5.04882 4.65829 5.04882 4.85355 4.85355C5.04882 4.65829 5.04882 4.34171 4.85355 4.14645L3.85355 3.14645C3.65829 2.95118 3.34171 2.95118 3.14645 3.14645C2.95118 3.34171 2.95118 3.65829 3.14645 3.85355L4.14645 4.85355ZM12.1464 12.1464C12.3417 11.9512 12.6583 11.9512 12.8536 12.1464L13.8536 13.1464C14.0488 13.3417 14.0488 13.6583 13.8536 13.8536C13.6583 14.0488 13.3417 14.0488 13.1464 13.8536L12.1464 12.8536C11.9512 12.6583 11.9512 12.3417 12.1464 12.1464ZM4.14645 12.1464C4.34171 11.9512 4.65829 11.9512 4.85355 12.1464C5.04882 12.3417 5.04882 12.6583 4.85355 12.8536L3.85355 13.8536C3.65829 14.0488 3.34171 14.0488 3.14645 13.8536C2.95118 13.6583 2.95118 13.3417 3.14645 13.1464L4.14645 12.1464Z" fill="#9DB9CC"/>
</svg>
