<svg width="16" height="16" viewBox="0 0 16 16" fill="none" xmlns="http://www.w3.org/2000/svg">
<path d="M9.85355 5.14645C9.65829 4.95118 9.34171 4.95118 9.14645 5.14645C8.95118 5.34171 8.95118 5.65829 9.14645 5.85355L9.85355 5.14645ZM12.5 8.5L12.8536 8.85355C13.0488 8.65829 13.0488 8.34171 12.8536 8.14645L12.5 8.5ZM9.14645 11.1464C8.95118 11.3417 8.95118 11.6583 9.14645 11.8536C9.34171 12.0488 9.65829 12.0488 9.85355 11.8536L9.14645 11.1464ZM9.14645 5.85355L12.1464 8.85355L12.8536 8.14645L9.85355 5.14645L9.14645 5.85355ZM12.1464 8.14645L9.14645 11.1464L9.85355 11.8536L12.8536 8.85355L12.1464 8.14645Z" fill="#9DB9CC"/>
<path d="M6.5 8C6.22386 8 6 8.22386 6 8.5C6 8.77614 6.22386 9 6.5 9V8ZM12.5 8H6.5V9H12.5V8Z" fill="#9DB9CC"/>
<path d="M7 3.5L3.5 3.5V13.5H7" stroke="#9DB9CC"/>
</svg>
