<!--
  Copyright (C) 2022 Budislav Stepanov, Joshua Wade

  This file is part of Anthem.

  Anthem is free software: you can redistribute it and/or modify
  it under the terms of the GNU General Public License as published by
  the Free Software Foundation, either version 3 of the License, or
  (at your option) any later version.

  Anthem is distributed in the hope that it will be useful,
  but WITHOUT ANY WARRANTY; without even the implied warranty of
  MERCHANTABILITY or FITNESS FOR A PARTICULAR PURPOSE. See the GNU
  General Public License for more details.

  You should have received a copy of the GNU General Public License
  along with Anthem. If not, see <https://www.gnu.org/licenses/>.
-->

<svg width="16" height="16" viewBox="0 0 16 16" fill="none" xmlns="http://www.w3.org/2000/svg">
<path fill-rule="evenodd" clip-rule="evenodd" d="M3.5 7C3.77614 7 4 6.77614 4 6.5V1.70711L6.14645 3.85355C6.34171 4.04882 6.65829 4.04882 6.85355 3.85355C7.04882 3.65829 7.04882 3.34171 6.85355 3.14645L3.85355 0.146447C3.65829 -0.0488157 3.34171 -0.0488157 3.14645 0.146447L0.146447 3.14645C-0.0488155 3.34171 -0.0488155 3.65829 0.146447 3.85355C0.341709 4.04882 0.658291 4.04882 0.853553 3.85355L3 1.70711V6.5C3 6.77614 3.22386 7 3.5 7Z" fill="#9DB9CC"/>
<path d="M15.5 9.5H9.5" stroke="#9DB9CC" stroke-linecap="round" stroke-linejoin="bevel"/>
<path d="M15.5 12.5H9.5" stroke="#9DB9CC" stroke-linecap="round" stroke-linejoin="bevel"/>
<path d="M15.5 15.5H9.5" stroke="#9DB9CC" stroke-linecap="round" stroke-linejoin="bevel"/>
</svg>
