<!--
    Copyright (C) 2021 Joshua Wade, Budislav Stepanov

    This file is part of Anthem.

    Anthem is free software: you can redistribute it and/or modify
    it under the terms of the GNU General Public License as published by
    the Free Software Foundation, either version 3 of the License, or
    (at your option) any later version.

    Anthem is distributed in the hope that it will be useful,
    but WITHOUT ANY WARRANTY; without even the implied warranty of
    MERCHANTABILITY or FITNESS FOR A PARTICULAR PURPOSE. See the GNU
    General Public License for more details.

    You should have received a copy of the GNU General Public License
    along with Anthem. If not, see <https://www.gnu.org/licenses/>.
-->

<svg width="16" height="16" viewBox="0 0 16 16" fill="none" xmlns="http://www.w3.org/2000/svg">
<path fill-rule="evenodd" clip-rule="evenodd" d="M4 8C4.55228 8 5 8.44772 5 9V12.5858L6.29289 11.2929C6.68342 10.9024 7.31658 10.9024 7.70711 11.2929C8.09763 11.6834 8.09763 12.3166 7.70711 12.7071L4.70711 15.7071C4.31658 16.0976 3.68342 16.0976 3.29289 15.7071L0.292893 12.7071C-0.0976311 12.3166 -0.0976311 11.6834 0.292893 11.2929C0.683417 10.9024 1.31658 10.9024 1.70711 11.2929L3 12.5858V9C3 8.44772 3.44772 8 4 8Z" fill="white"/>
<path fill-rule="evenodd" clip-rule="evenodd" d="M12 8C12.5523 8 13 7.55228 13 7V3.41421L14.2929 4.70711C14.6834 5.09763 15.3166 5.09763 15.7071 4.70711C16.0976 4.31658 16.0976 3.68342 15.7071 3.29289L12.7071 0.292893C12.3166 -0.0976315 11.6834 -0.0976315 11.2929 0.292893L8.29289 3.29289C7.90237 3.68342 7.90237 4.31658 8.29289 4.70711C8.68342 5.09763 9.31658 5.09763 9.70711 4.70711L11 3.41421V7C11 7.55228 11.4477 8 12 8Z" fill="white"/>
</svg>
