<!--
  Copyright (C) 2021 - 2024 Budislav Stepanov

  This file is part of Anthem.

  Anthem is free software: you can redistribute it and/or modify
  it under the terms of the GNU General Public License as published by
  the Free Software Foundation, either version 3 of the License, or
  (at your option) any later version.

  Anthem is distributed in the hope that it will be useful,
  but WITHOUT ANY WARRANTY; without even the implied warranty of
  MERCHANTABILITY or FITNESS FOR A PARTICULAR PURPOSE. See the GNU
  General Public License for more details.

  You should have received a copy of the GNU General Public License
  along with Anthem. If not, see <https://www.gnu.org/licenses/>.
-->

<svg width="16" height="16" viewBox="0 0 16 16" fill="none" xmlns="http://www.w3.org/2000/svg">
<path fill-rule="evenodd" clip-rule="evenodd" d="M4 3H6C7.87423 3 9.44739 4.28903 9.8813 6.02889C11.081 6.2125 12 7.24893 12 8.5V13.5C12 13.7761 12.2239 14 12.5 14H14.5C14.7761 14 15 14.2239 15 14.5C15 14.7761 14.7761 15 14.5 15H12.5C11.6716 15 11 14.3284 11 13.5V8.5C11 7.84656 10.5822 7.29071 9.99911 7.08504C9.95386 9.25492 8.18072 11 6 11H4V9H2.5C2.22386 9 2 8.77614 2 8.5C2 8.22386 2.22386 8 2.5 8H4V6H2.5C2.22386 6 2 5.77614 2 5.5C2 5.22386 2.22386 5 2.5 5H4V3ZM5 10H6C7.65685 10 9 8.65685 9 7C9 5.34315 7.65685 4 6 4H5V10Z" fill="#CFCFCF"/>
</svg>
