<!--
    Copyright (C) 2021 Joshua Wade, Budislav Stepanov

    This file is part of Anthem.

    Anthem is free software: you can redistribute it and/or modify
    it under the terms of the GNU General Public License as published by
    the Free Software Foundation, either version 3 of the License, or
    (at your option) any later version.

    Anthem is distributed in the hope that it will be useful,
    but WITHOUT ANY WARRANTY; without even the implied warranty of
    MERCHANTABILITY or FITNESS FOR A PARTICULAR PURPOSE. See the GNU
    General Public License for more details.

    You should have received a copy of the GNU General Public License
    along with Anthem. If not, see <https://www.gnu.org/licenses/>.
-->

<svg width="16" height="16" viewBox="0 0 16 16" fill="none" xmlns="http://www.w3.org/2000/svg">
<rect x="1" y="1" width="14" height="14" rx="1" stroke="white" stroke-width="2"/>
<path d="M4 4C4 3.44772 4.44772 3 5 3V3C5.55228 3 6 3.44772 6 4V5C6 5.55228 5.55228 6 5 6V6C4.44772 6 4 5.55228 4 5V4Z" fill="white"/>
<path d="M7 4C7 3.44772 7.44772 3 8 3V3C8.55228 3 9 3.44772 9 4V5C9 5.55228 8.55228 6 8 6V6C7.44772 6 7 5.55228 7 5V4Z" fill="white"/>
<path d="M10 4C10 3.44772 10.4477 3 11 3V3C11.5523 3 12 3.44772 12 4V5C12 5.55228 11.5523 6 11 6V6C10.4477 6 10 5.55228 10 5V4Z" fill="white"/>
<path d="M4 11C4 10.4477 4.44772 10 5 10V10C5.55228 10 6 10.4477 6 11V12C6 12.5523 5.55228 13 5 13V13C4.44772 13 4 12.5523 4 12V11Z" fill="white"/>
<path d="M2 7H14V9H2V7Z" fill="white"/>
<path d="M7 11C7 10.4477 7.44772 10 8 10V10C8.55228 10 9 10.4477 9 11V12C9 12.5523 8.55228 13 8 13V13C7.44772 13 7 12.5523 7 12V11Z" fill="white"/>
<path d="M10 11C10 10.4477 10.4477 10 11 10V10C11.5523 10 12 10.4477 12 11V12C12 12.5523 11.5523 13 11 13V13C10.4477 13 10 12.5523 10 12V11Z" fill="white"/>
</svg>
