<!--
    Copyright (C) 2021 Joshua Wade, Budislav Stepanov

    This file is part of Anthem.

    Anthem is free software: you can redistribute it and/or modify
    it under the terms of the GNU General Public License as published by
    the Free Software Foundation, either version 3 of the License, or
    (at your option) any later version.

    Anthem is distributed in the hope that it will be useful,
    but WITHOUT ANY WARRANTY; without even the implied warranty of
    MERCHANTABILITY or FITNESS FOR A PARTICULAR PURPOSE. See the GNU
    General Public License for more details.

    You should have received a copy of the GNU General Public License
    along with Anthem. If not, see <https://www.gnu.org/licenses/>.
-->

<svg width="16" height="16" viewBox="0 0 16 16" fill="none" xmlns="http://www.w3.org/2000/svg">
<path d="M0 1C0 0.447715 0.447715 0 1 0H2C2.55228 0 3 0.447715 3 1V6C3 6.55228 2.55228 7 2 7H1C0.447715 7 0 6.55228 0 6V1Z" fill="white"/>
<path d="M4 1C4 0.447715 4.44772 0 5 0H6C6.55228 0 7 0.447715 7 1V6C7 6.55228 6.55228 7 6 7H5C4.44772 7 4 6.55228 4 6V1Z" fill="white"/>
<path d="M9 1C9 0.447715 9.44772 0 10 0H11C11.5523 0 12 0.447715 12 1V6C12 6.55228 11.5523 7 11 7H10C9.44772 7 9 6.55228 9 6V1Z" fill="white"/>
<path d="M13 1C13 0.447715 13.4477 0 14 0H15C15.5523 0 16 0.447715 16 1V6C16 6.55228 15.5523 7 15 7H14C13.4477 7 13 6.55228 13 6V1Z" fill="white"/>
<path d="M0 10C0 9.44772 0.447715 9 1 9H2C2.55228 9 3 9.44772 3 10V15C3 15.5523 2.55228 16 2 16H1C0.447715 16 0 15.5523 0 15V10Z" fill="white"/>
<path d="M4 10C4 9.44772 4.44772 9 5 9H6C6.55228 9 7 9.44772 7 10V15C7 15.5523 6.55228 16 6 16H5C4.44772 16 4 15.5523 4 15V10Z" fill="white"/>
<path d="M9 10C9 9.44772 9.44772 9 10 9H11C11.5523 9 12 9.44772 12 10V15C12 15.5523 11.5523 16 11 16H10C9.44772 16 9 15.5523 9 15V10Z" fill="white"/>
<path d="M13 10C13 9.44772 13.4477 9 14 9H15C15.5523 9 16 9.44772 16 10V15C16 15.5523 15.5523 16 15 16H14C13.4477 16 13 15.5523 13 15V10Z" fill="white"/>
</svg>
