<!--
    Copyright (C) 2021 Joshua Wade, Budislav Stepanov

    This file is part of Anthem.

    Anthem is free software: you can redistribute it and/or modify
    it under the terms of the GNU General Public License as published by
    the Free Software Foundation, either version 3 of the License, or
    (at your option) any later version.

    Anthem is distributed in the hope that it will be useful,
    but WITHOUT ANY WARRANTY; without even the implied warranty of
    MERCHANTABILITY or FITNESS FOR A PARTICULAR PURPOSE. See the GNU
    General Public License for more details.

    You should have received a copy of the GNU General Public License
    along with Anthem. If not, see <https://www.gnu.org/licenses/>.
-->

<svg width="16" height="16" viewBox="0 0 16 16" fill="none" xmlns="http://www.w3.org/2000/svg">
<path fill-rule="evenodd" clip-rule="evenodd" d="M1 0C0.447715 0 0 0.447715 0 1V14.5C0 14.5865 0.0109811 14.6704 0.0316251 14.7505C-0.0404604 15.0301 0.0116206 15.3294 0.178074 15.5696C0.36489 15.8392 0.672021 16 1 16H12C12.4168 16 12.79 15.7414 12.9363 15.3511L15.9363 7.35112C16.0515 7.04403 16.0087 6.69998 15.8219 6.43041C15.6351 6.16083 15.328 6 15 6H4C3.58316 6 3.21003 6.25857 3.06367 6.64888L2 9.48533V2H5.46482L7.16795 4.5547C7.35342 4.8329 7.66565 5 8 5H15C15.5523 5 16 4.55228 16 4C16 3.44772 15.5523 3 15 3H8.53518L6.83205 0.4453C6.64658 0.167101 6.33435 0 6 0H1ZM2.443 14L4.693 8H13.557L11.307 14H2.443Z" fill="white"/>
</svg>
