<!--
  Copyright (C) 2021 - 2024 Budislav Stepanov

  This file is part of Anthem.

  Anthem is free software: you can redistribute it and/or modify
  it under the terms of the GNU General Public License as published by
  the Free Software Foundation, either version 3 of the License, or
  (at your option) any later version.

  Anthem is distributed in the hope that it will be useful,
  but WITHOUT ANY WARRANTY; without even the implied warranty of
  MERCHANTABILITY or FITNESS FOR A PARTICULAR PURPOSE. See the GNU
  General Public License for more details.

  You should have received a copy of the GNU General Public License
  along with Anthem. If not, see <https://www.gnu.org/licenses/>.
-->

<svg width="16" height="16" viewBox="0 0 16 16" fill="none" xmlns="http://www.w3.org/2000/svg">
<path d="M2.54762 7.90879H3.2655C3.49547 7.90879 3.68503 7.86994 3.8342 7.79225C3.98337 7.71145 4.09369 7.59957 4.16517 7.45662C4.23976 7.31056 4.27705 7.14119 4.27705 6.94851C4.27705 6.77448 4.24286 6.62065 4.17449 6.48702C4.10923 6.35029 4.00823 6.24463 3.8715 6.17004C3.73476 6.09235 3.56228 6.0535 3.35407 6.0535C3.18936 6.0535 3.03708 6.08613 2.89724 6.1514C2.75739 6.21666 2.64552 6.30833 2.56161 6.42642C2.4777 6.54452 2.43575 6.68747 2.43575 6.85528H1.08857C1.08857 6.48236 1.18801 6.15761 1.38691 5.88103C1.58891 5.60444 1.85927 5.38846 2.19801 5.23308C2.53675 5.07769 2.90967 5 3.31677 5C3.77671 5 4.17916 5.07458 4.52411 5.22375C4.86906 5.36981 5.13787 5.5858 5.33055 5.8717C5.52323 6.15761 5.61957 6.51189 5.61957 6.93453C5.61957 7.14896 5.56984 7.35717 5.4704 7.55917C5.37095 7.75806 5.228 7.93831 5.04154 8.09991C4.85818 8.2584 4.63443 8.38582 4.37028 8.48215C4.10613 8.57538 3.80934 8.622 3.47993 8.622H2.54762V7.90879ZM2.54762 8.92966V8.23509H3.47993C3.84974 8.23509 4.17449 8.27705 4.45419 8.36095C4.73388 8.44486 4.96851 8.56606 5.15807 8.72455C5.34764 8.87994 5.4906 9.06484 5.58693 9.27927C5.68327 9.4906 5.73144 9.72523 5.73144 9.98316C5.73144 10.3001 5.67084 10.5829 5.54964 10.8316C5.42844 11.0771 5.25752 11.2853 5.03687 11.4562C4.81934 11.6271 4.56451 11.7576 4.27239 11.8478C3.98026 11.9348 3.66173 11.9783 3.31677 11.9783C3.03087 11.9783 2.74962 11.9394 2.47304 11.8618C2.19956 11.781 1.95095 11.6613 1.7272 11.5028C1.50655 11.3412 1.32941 11.1392 1.19578 10.8968C1.06526 10.6513 1 10.3607 1 10.0251H2.34718C2.34718 10.1991 2.39069 10.3545 2.4777 10.4913C2.56472 10.628 2.68436 10.7352 2.83664 10.8129C2.99202 10.8906 3.1645 10.9295 3.35407 10.9295C3.5685 10.9295 3.75185 10.8906 3.90413 10.8129C4.05951 10.7321 4.1776 10.6202 4.2584 10.4773C4.34231 10.3312 4.38426 10.1619 4.38426 9.96918C4.38426 9.72056 4.3392 9.52167 4.24908 9.3725C4.15896 9.22023 4.02999 9.10835 3.86217 9.03687C3.69436 8.9654 3.49547 8.92966 3.2655 8.92966H2.54762Z" fill="#CFCFCF"/>
<path d="M6.25055 11.2371C6.25055 11.0382 6.31892 10.872 6.45565 10.7383C6.5955 10.6047 6.78041 10.5379 7.01038 10.5379C7.24034 10.5379 7.4237 10.6047 7.56043 10.7383C7.70028 10.872 7.7702 11.0382 7.7702 11.2371C7.7702 11.436 7.70028 11.6023 7.56043 11.7359C7.4237 11.8695 7.24034 11.9363 7.01038 11.9363C6.78041 11.9363 6.5955 11.8695 6.45565 11.7359C6.31892 11.6023 6.25055 11.436 6.25055 11.2371Z" fill="#CFCFCF"/>
<path d="M11.8808 11.0693V11.8851H8.26963V11.1889L9.9773 9.358C10.1489 9.16705 10.2843 8.99906 10.3834 8.85404C10.4825 8.7066 10.5538 8.57487 10.5973 8.45885C10.6432 8.34041 10.6662 8.22802 10.6662 8.12166C10.6662 7.96214 10.6396 7.82557 10.5864 7.71197C10.5332 7.59595 10.4547 7.50652 10.3507 7.44367C10.2492 7.38083 10.1235 7.34941 9.97367 7.34941C9.81414 7.34941 9.67637 7.38808 9.56035 7.46543C9.44675 7.54277 9.35973 7.65033 9.29931 7.78811C9.2413 7.92588 9.21229 8.08178 9.21229 8.25581H8.16448C8.16448 7.94159 8.23941 7.65396 8.38927 7.39291C8.53913 7.12945 8.75063 6.92037 9.02376 6.76568C9.29689 6.60857 9.62078 6.53001 9.99543 6.53001C10.3652 6.53001 10.677 6.59044 10.9308 6.7113C11.187 6.82973 11.3804 7.00135 11.5109 7.22613C11.6439 7.44851 11.7103 7.71439 11.7103 8.02377C11.7103 8.1978 11.6826 8.36821 11.627 8.53498C11.5714 8.69935 11.4916 8.86371 11.3877 9.02807C11.2861 9.19001 11.1629 9.35438 11.0179 9.52115C10.8728 9.68793 10.7121 9.86075 10.5356 10.0396L9.61836 11.0693H11.8808Z" fill="#CFCFCF"/>
<path d="M12.2192 11.3811C12.2192 11.2264 12.2724 11.0971 12.3788 10.9932C12.4875 10.8892 12.6314 10.8373 12.8102 10.8373C12.9891 10.8373 13.1317 10.8892 13.238 10.9932C13.3468 11.0971 13.4012 11.2264 13.4012 11.3811C13.4012 11.5358 13.3468 11.6651 13.238 11.769C13.1317 11.873 12.9891 11.9249 12.8102 11.9249C12.6314 11.9249 12.4875 11.873 12.3788 11.769C12.2724 11.6651 12.2192 11.5358 12.2192 11.3811Z" fill="#CFCFCF"/>
<path d="M16 7.35096V11.8851H15.105V8.38271L14.0297 8.72455V8.01911L15.9037 7.35096H16Z" fill="#CFCFCF"/>
</svg>
