<!--
  Copyright (C) 2021 - 2024 Budislav Stepanov

  This file is part of Anthem.

  Anthem is free software: you can redistribute it and/or modify
  it under the terms of the GNU General Public License as published by
  the Free Software Foundation, either version 3 of the License, or
  (at your option) any later version.

  Anthem is distributed in the hope that it will be useful,
  but WITHOUT ANY WARRANTY; without even the implied warranty of
  MERCHANTABILITY or FITNESS FOR A PARTICULAR PURPOSE. See the GNU
  General Public License for more details.

  You should have received a copy of the GNU General Public License
  along with Anthem. If not, see <https://www.gnu.org/licenses/>.
-->

<svg width="16" height="16" viewBox="0 0 16 16" fill="none" xmlns="http://www.w3.org/2000/svg">
<path fill-rule="evenodd" clip-rule="evenodd" d="M1 1H10V8H1V1ZM5 2H6V5H7V2H9V7H2V2H4V5H5V2Z" fill="#CFCFCF"/>
<path d="M12 11V13H14V12H13V11H12Z" fill="#CFCFCF"/>
<path fill-rule="evenodd" clip-rule="evenodd" d="M12.5 16C14.433 16 16 14.433 16 12.5C16 10.567 14.433 9 12.5 9C10.567 9 9 10.567 9 12.5C9 14.433 10.567 16 12.5 16ZM12.5 15C13.8807 15 15 13.8807 15 12.5C15 11.1193 13.8807 10 12.5 10C11.1193 10 10 11.1193 10 12.5C10 13.8807 11.1193 15 12.5 15Z" fill="#CFCFCF"/>
</svg>
