<svg width="7" height="9" viewBox="0 0 7 9" fill="none" xmlns="http://www.w3.org/2000/svg">
<path d="M4.73438 6.39844C4.73438 6.25391 4.71289 6.125 4.66992 6.01172C4.62695 5.89453 4.54883 5.78711 4.43555 5.68945C4.32227 5.5918 4.16211 5.49414 3.95508 5.39648C3.74805 5.29492 3.47656 5.19141 3.14062 5.08594C2.75781 4.96094 2.39258 4.82031 2.04492 4.66406C1.70117 4.50391 1.39453 4.31836 1.125 4.10742C0.855469 3.89648 0.642578 3.65039 0.486328 3.36914C0.333984 3.08789 0.257812 2.75977 0.257812 2.38477C0.257812 2.02148 0.337891 1.69336 0.498047 1.40039C0.658203 1.10742 0.882812 0.857422 1.17188 0.650391C1.46094 0.439453 1.80078 0.279297 2.19141 0.169922C2.58203 0.0566406 3.01172 0 3.48047 0C4.10547 0 4.6543 0.111328 5.12695 0.333984C5.60352 0.552734 5.97461 0.861328 6.24023 1.25977C6.50586 1.6543 6.63867 2.11328 6.63867 2.63672H4.74023C4.74023 2.40625 4.69141 2.20312 4.59375 2.02734C4.5 1.84766 4.35547 1.70703 4.16016 1.60547C3.96875 1.50391 3.72852 1.45312 3.43945 1.45312C3.1582 1.45312 2.92188 1.49609 2.73047 1.58203C2.54297 1.66406 2.40039 1.77734 2.30273 1.92188C2.20898 2.06641 2.16211 2.22461 2.16211 2.39648C2.16211 2.5332 2.19727 2.6582 2.26758 2.77148C2.3418 2.88086 2.44727 2.98438 2.58398 3.08203C2.72461 3.17578 2.89648 3.26562 3.09961 3.35156C3.30273 3.4375 3.53516 3.51953 3.79688 3.59766C4.25391 3.74219 4.6582 3.90234 5.00977 4.07812C5.36523 4.25391 5.66406 4.45312 5.90625 4.67578C6.14844 4.89844 6.33008 5.15039 6.45117 5.43164C6.57617 5.71289 6.63867 6.03125 6.63867 6.38672C6.63867 6.76562 6.56445 7.10156 6.41602 7.39453C6.27148 7.6875 6.06055 7.9375 5.7832 8.14453C5.50977 8.34766 5.18164 8.50195 4.79883 8.60742C4.41602 8.71289 3.98828 8.76562 3.51562 8.76562C3.08594 8.76562 2.66211 8.71094 2.24414 8.60156C1.82617 8.48828 1.44727 8.31641 1.10742 8.08594C0.771484 7.85547 0.501953 7.5625 0.298828 7.20703C0.0996094 6.84766 0 6.42188 0 5.92969H1.91016C1.91016 6.1875 1.94727 6.40625 2.02148 6.58594C2.0957 6.76172 2.20117 6.9043 2.33789 7.01367C2.47852 7.12305 2.64844 7.20117 2.84766 7.24805C3.04688 7.29492 3.26953 7.31836 3.51562 7.31836C3.80078 7.31836 4.03125 7.2793 4.20703 7.20117C4.38672 7.11914 4.51953 7.00781 4.60547 6.86719C4.69141 6.72656 4.73438 6.57031 4.73438 6.39844Z" fill="#E3E3E3"/>
</svg>
