<svg width="16" height="16" viewBox="0 0 16 16" fill="none" xmlns="http://www.w3.org/2000/svg">
<path d="M3.5 3.5L3.72361 3.05279C3.56861 2.97529 3.38454 2.98357 3.23713 3.07467C3.08973 3.16578 3 3.32671 3 3.5H3.5ZM3.5 12.5H3C3 12.6733 3.08973 12.8342 3.23713 12.9253C3.38454 13.0164 3.56861 13.0247 3.72361 12.9472L3.5 12.5ZM12.5 8L12.7236 8.44721C12.893 8.36252 13 8.18939 13 8C13 7.81061 12.893 7.63748 12.7236 7.55279L12.5 8ZM3 3.5V12.5H4V3.5H3ZM3.72361 12.9472L12.7236 8.44721L12.2764 7.55279L3.27639 12.0528L3.72361 12.9472ZM12.7236 7.55279L3.72361 3.05279L3.27639 3.94721L12.2764 8.44721L12.7236 7.55279Z" fill="#9DB9CC"/>
</svg>
