<!--
  Copyright (C) 2022 Budislav Stepanov, Joshua Wade

  This file is part of Anthem.

  Anthem is free software: you can redistribute it and/or modify
  it under the terms of the GNU General Public License as published by
  the Free Software Foundation, either version 3 of the License, or
  (at your option) any later version.

  Anthem is distributed in the hope that it will be useful,
  but WITHOUT ANY WARRANTY; without even the implied warranty of
  MERCHANTABILITY or FITNESS FOR A PARTICULAR PURPOSE. See the GNU
  General Public License for more details.

  You should have received a copy of the GNU General Public License
  along with Anthem. If not, see <https://www.gnu.org/licenses/>.
-->

<svg width="16" height="16" viewBox="0 0 16 16" fill="none" xmlns="http://www.w3.org/2000/svg">
<path fill-rule="evenodd" clip-rule="evenodd" d="M8.14645 1.85355C7.95118 1.65829 7.95118 1.34171 8.14645 1.14645C8.34171 0.951184 8.65829 0.951184 8.85355 1.14645L11.8536 4.14645C12.0488 4.34171 12.0488 4.65829 11.8536 4.85355L8.85355 7.85355C8.65829 8.04882 8.34171 8.04882 8.14645 7.85355C7.95118 7.65829 7.95118 7.34171 8.14645 7.14645L10.2929 5H4.5C4.22386 5 4 4.77614 4 4.5C4 4.22386 4.22386 4 4.5 4H10.2929L8.14645 1.85355Z" fill="#9DB9CC"/>
<path d="M1.5 11C1.5 10.7239 1.72386 10.5 2 10.5H14C14.2761 10.5 14.5 10.7239 14.5 11V14C14.5 14.2761 14.2761 14.5 14 14.5H2C1.72386 14.5 1.5 14.2761 1.5 14V11Z" stroke="#9DB9CC"/>
<path d="M3.5 12.5H12.5" stroke="#9DB9CC" stroke-linecap="round"/>
</svg>
