<!--
    Copyright (C) 2021 Joshua Wade, Budislav Stepanov

    This file is part of Anthem.

    Anthem is free software: you can redistribute it and/or modify
    it under the terms of the GNU General Public License as published by
    the Free Software Foundation, either version 3 of the License, or
    (at your option) any later version.

    Anthem is distributed in the hope that it will be useful,
    but WITHOUT ANY WARRANTY; without even the implied warranty of
    MERCHANTABILITY or FITNESS FOR A PARTICULAR PURPOSE. See the GNU
    General Public License for more details.

    You should have received a copy of the GNU General Public License
    along with Anthem. If not, see <https://www.gnu.org/licenses/>.
-->

<svg width="16" height="16" viewBox="0 0 16 16" fill="none" xmlns="http://www.w3.org/2000/svg">
<circle cx="11.5" cy="11.5" r="3.5" stroke="white" stroke-width="2"/>
<path d="M1 1L1.44721 0.105573C1.13723 -0.0494214 0.769085 -0.0328574 0.474269 0.149349C0.179452 0.331556 0 0.653422 0 1L1 1ZM1 8H0C0 8.34658 0.179452 8.66844 0.474269 8.85065C0.769085 9.03286 1.13723 9.04942 1.44721 8.89443L1 8ZM8 4.5L8.44721 5.39443C8.786 5.22504 9 4.87877 9 4.5C9 4.12123 8.786 3.77496 8.44721 3.60557L8 4.5ZM0 1V8H2V1H0ZM1.44721 8.89443L8.44721 5.39443L7.55279 3.60557L0.552786 7.10557L1.44721 8.89443ZM8.44721 3.60557L1.44721 0.105573L0.552786 1.89443L7.55279 5.39443L8.44721 3.60557Z" fill="white"/>
</svg>
