<!--
  Copyright (C) 2021 - 2024 Budislav Stepanov

  This file is part of Anthem.

  Anthem is free software: you can redistribute it and/or modify
  it under the terms of the GNU General Public License as published by
  the Free Software Foundation, either version 3 of the License, or
  (at your option) any later version.

  Anthem is distributed in the hope that it will be useful,
  but WITHOUT ANY WARRANTY; without even the implied warranty of
  MERCHANTABILITY or FITNESS FOR A PARTICULAR PURPOSE. See the GNU
  General Public License for more details.

  You should have received a copy of the GNU General Public License
  along with Anthem. If not, see <https://www.gnu.org/licenses/>.
-->

<svg width="16" height="16" viewBox="0 0 16 16" fill="none" xmlns="http://www.w3.org/2000/svg">
<path fill-rule="evenodd" clip-rule="evenodd" d="M8.5 15C12.0899 15 15 12.0899 15 8.5C15 4.91015 12.0899 2 8.5 2C4.91015 2 2 4.91015 2 8.5C2 12.0899 4.91015 15 8.5 15ZM8.5 16C12.6421 16 16 12.6421 16 8.5C16 4.35786 12.6421 1 8.5 1C4.35786 1 1 4.35786 1 8.5C1 12.6421 4.35786 16 8.5 16Z" fill="#CFCFCF"/>
<path d="M10 4.5C10 5.32843 9.32843 6 8.5 6C7.67157 6 7 5.32843 7 4.5C7 3.67157 7.67157 3 8.5 3C9.32843 3 10 3.67157 10 4.5Z" fill="#CFCFCF"/>
</svg>
