<!--
  Copyright (C) 2021 - 2024 Budislav Stepanov

  This file is part of Anthem.

  Anthem is free software: you can redistribute it and/or modify
  it under the terms of the GNU General Public License as published by
  the Free Software Foundation, either version 3 of the License, or
  (at your option) any later version.

  Anthem is distributed in the hope that it will be useful,
  but WITHOUT ANY WARRANTY; without even the implied warranty of
  MERCHANTABILITY or FITNESS FOR A PARTICULAR PURPOSE. See the GNU
  General Public License for more details.

  You should have received a copy of the GNU General Public License
  along with Anthem. If not, see <https://www.gnu.org/licenses/>.
-->

<svg width="29" height="16" viewBox="0 0 29 16" fill="none" xmlns="http://www.w3.org/2000/svg">
<path fill-rule="evenodd" clip-rule="evenodd" d="M4 3C3.44772 3 3 3.44772 3 4V12C3 12.5523 3.44772 13 4 13H12C12.5523 13 13 12.5523 13 12V4C13 3.44772 12.5523 3 12 3H4ZM6 4H4V6H6V4ZM7 4V6H9V4L7 4ZM7 7H9V9H7V7ZM10 7V9H12V7H10ZM12 10H10V12H12V10ZM12 4V6H10V4L12 4ZM7 10H9V12H7V10ZM6 7H4V9H6V7ZM6 10H4V12H6V10Z" fill="#CFCFCF"/>
<path fill-rule="evenodd" clip-rule="evenodd" d="M16 4C16 3.44772 16.4477 3 17 3H25C25.5523 3 26 3.44772 26 4V12C26 12.5523 25.5523 13 25 13H17C16.4477 13 16 12.5523 16 12V4ZM17 4H25V6H17V4ZM17 7V9H25V7H17ZM17 12V10H25V12H17Z" fill="#28D1AA"/>
</svg>
