<!--
  Copyright (C) 2021 - 2024 Budislav Stepanov

  This file is part of Anthem.

  Anthem is free software: you can redistribute it and/or modify
  it under the terms of the GNU General Public License as published by
  the Free Software Foundation, either version 3 of the License, or
  (at your option) any later version.

  Anthem is distributed in the hope that it will be useful,
  but WITHOUT ANY WARRANTY; without even the implied warranty of
  MERCHANTABILITY or FITNESS FOR A PARTICULAR PURPOSE. See the GNU
  General Public License for more details.

  You should have received a copy of the GNU General Public License
  along with Anthem. If not, see <https://www.gnu.org/licenses/>.
-->

<svg width="16" height="16" viewBox="0 0 16 16" fill="none" xmlns="http://www.w3.org/2000/svg">
<path d="M5.14648 1.85358C4.95122 1.65832 4.95122 1.34174 5.14648 1.14648C5.34174 0.951215 5.65832 0.951215 5.85358 1.14648L8.85358 4.14648C9.04885 4.34174 9.04885 4.65832 8.85358 4.85358L5.85358 7.85358C5.65832 8.04885 5.34174 8.04885 5.14648 7.85358C4.95122 7.65832 4.95122 7.34174 5.14648 7.14648L7.29289 5.00006H2.50003C2.22389 5.00006 2.00003 5.22392 2.00003 5.50006V14.5001C2.00003 14.7762 2.22389 15.0001 2.50003 15.0001H14.5C14.7762 15.0001 15 14.7762 15 14.5001V5.50006C15 5.22392 14.7762 5.00006 14.5 5.00006H12V4.00006H14.5C15.3285 4.00006 16 4.67163 16 5.50006V14.5001C16 15.3285 15.3285 16.0001 14.5 16.0001H2.50003C1.6716 16.0001 1.00003 15.3285 1.00003 14.5001V5.50006C1.00003 4.67163 1.6716 4.00006 2.50003 4.00006H7.29295L5.14648 1.85358Z" fill="#CFCFCF"/>
</svg>
