<svg width="16" height="16" viewBox="0 0 16 16" fill="none" xmlns="http://www.w3.org/2000/svg">
<path fill-rule="evenodd" clip-rule="evenodd" d="M5.14648 1.85355C4.95122 1.65829 4.95122 1.34171 5.14648 1.14645C5.34174 0.951184 5.65832 0.951184 5.85358 1.14645L8.85358 4.14645C9.04885 4.34171 9.04885 4.65829 8.85358 4.85355L5.85358 7.85355C5.65832 8.04882 5.34174 8.04882 5.14648 7.85355C4.95122 7.65829 4.95122 7.34171 5.14648 7.14645L7.2929 5.00003H2.50003C2.22389 5.00003 2.00003 5.22389 2.00003 5.50003V13.5C2.00003 13.7762 2.22389 14 2.50003 14H13.5C13.7762 14 14 13.7762 14 13.5V5.50003C14 5.22389 13.7762 5.00003 13.5 5.00003H11V4.00003H13.5C14.3285 4.00003 15 4.6716 15 5.50003V13.5C15 14.3285 14.3285 15 13.5 15H2.50003C1.6716 15 1.00003 14.3285 1.00003 13.5V5.50003C1.00003 4.6716 1.6716 4.00003 2.50003 4.00003H7.29295L5.14648 1.85355Z" fill="#9DB9CC"/>
</svg>
