<!--
    Copyright (C) 2021 Joshua Wade, Budislav Stepanov

    This file is part of Anthem.

    Anthem is free software: you can redistribute it and/or modify
    it under the terms of the GNU General Public License as published by
    the Free Software Foundation, either version 3 of the License, or
    (at your option) any later version.

    Anthem is distributed in the hope that it will be useful,
    but WITHOUT ANY WARRANTY; without even the implied warranty of
    MERCHANTABILITY or FITNESS FOR A PARTICULAR PURPOSE. See the GNU
    General Public License for more details.

    You should have received a copy of the GNU General Public License
    along with Anthem. If not, see <https://www.gnu.org/licenses/>.
-->

<svg width="16" height="16" viewBox="0 0 16 16" fill="none" xmlns="http://www.w3.org/2000/svg">
<path fill-rule="evenodd" clip-rule="evenodd" d="M12 3C12 2.44772 12.4477 2 13 2C13.5523 2 14 2.44772 14 3C14 3.55228 13.5523 4 13 4C12.4477 4 12 3.55228 12 3ZM13 0C11.3431 0 10 1.34315 10 3C10 3.46315 10.105 3.90178 10.2924 4.29342L4.29342 10.2924C3.90178 10.105 3.46315 10 3 10C1.34315 10 0 11.3431 0 13C0 14.6569 1.34315 16 3 16C4.65685 16 6 14.6569 6 13C6 12.5369 5.89505 12.0982 5.70763 11.7066L11.7066 5.70763C12.0982 5.89505 12.5369 6 13 6C14.6569 6 16 4.65685 16 3C16 1.34315 14.6569 0 13 0ZM3 12C2.44772 12 2 12.4477 2 13C2 13.5523 2.44772 14 3 14C3.55228 14 4 13.5523 4 13C4 12.4477 3.55228 12 3 12Z" fill="white" />
<path fill-rule="evenodd" clip-rule="evenodd" d="M12 15C12 15.5523 12.4477 16 13 16C13.5523 16 14 15.5523 14 15V14H15C15.5523 14 16 13.5523 16 13C16 12.4477 15.5523 12 15 12H14V11C14 10.4477 13.5523 10 13 10C12.4477 10 12 10.4477 12 11V12H11C10.4477 12 10 12.4477 10 13C10 13.5523 10.4477 14 11 14H12V15Z" fill="white"/>
</svg>
