<!--
  Copyright (C) 2022 Budislav Stepanov, Joshua Wade

  This file is part of Anthem.

  Anthem is free software: you can redistribute it and/or modify
  it under the terms of the GNU General Public License as published by
  the Free Software Foundation, either version 3 of the License, or
  (at your option) any later version.

  Anthem is distributed in the hope that it will be useful,
  but WITHOUT ANY WARRANTY; without even the implied warranty of
  MERCHANTABILITY or FITNESS FOR A PARTICULAR PURPOSE. See the GNU
  General Public License for more details.

  You should have received a copy of the GNU General Public License
  along with Anthem. If not, see <https://www.gnu.org/licenses/>.
-->

<svg width="16" height="16" viewBox="0 0 16 16" fill="none" xmlns="http://www.w3.org/2000/svg">
<path fill-rule="evenodd" clip-rule="evenodd" d="M2 7C2 4.79086 3.79086 3 6 3C8.20914 3 10 4.79086 10 7C10 9.20914 8.20914 11 6 11C3.79086 11 2 9.20914 2 7ZM6 2C3.23858 2 1 4.23858 1 7C1 9.76142 3.23858 12 6 12C7.20063 12 8.30243 11.5768 9.16437 10.8715L12.1464 13.8536C12.3417 14.0488 12.6583 14.0488 12.8536 13.8536C13.0488 13.6583 13.0488 13.3417 12.8536 13.1464L9.87147 10.1644C10.5768 9.30243 11 8.20063 11 7C11 4.23858 8.76142 2 6 2Z" fill="#9DB9CC"/>
</svg>
