<!--
  Copyright (C) 2021 - 2024 Budislav Stepanov

  This file is part of Anthem.

  Anthem is free software: you can redistribute it and/or modify
  it under the terms of the GNU General Public License as published by
  the Free Software Foundation, either version 3 of the License, or
  (at your option) any later version.

  Anthem is distributed in the hope that it will be useful,
  but WITHOUT ANY WARRANTY; without even the implied warranty of
  MERCHANTABILITY or FITNESS FOR A PARTICULAR PURPOSE. See the GNU
  General Public License for more details.

  You should have received a copy of the GNU General Public License
  along with Anthem. If not, see <https://www.gnu.org/licenses/>.
-->

<svg width="13" height="13" viewBox="0 0 13 13" fill="none" xmlns="http://www.w3.org/2000/svg">
<path fill-rule="evenodd" clip-rule="evenodd" d="M12 3C12 2.44772 11.5523 2 11 2H2C1.44772 2 1 2.44772 1 3V10C1 10.5523 1.44771 11 2 11H11C11.5523 11 12 10.5523 12 10V3ZM11 6C11 5.44772 10.5523 5 10 5H3C2.44772 5 2 5.44772 2 6V9C2 9.55228 2.44772 10 3 10H10C10.5523 10 11 9.55228 11 9V6Z" fill="white"/>
</svg>
