<!--
  Copyright (C) 2021 - 2024 Budislav Stepanov

  This file is part of Anthem.

  Anthem is free software: you can redistribute it and/or modify
  it under the terms of the GNU General Public License as published by
  the Free Software Foundation, either version 3 of the License, or
  (at your option) any later version.

  Anthem is distributed in the hope that it will be useful,
  but WITHOUT ANY WARRANTY; without even the implied warranty of
  MERCHANTABILITY or FITNESS FOR A PARTICULAR PURPOSE. See the GNU
  General Public License for more details.

  You should have received a copy of the GNU General Public License
  along with Anthem. If not, see <https://www.gnu.org/licenses/>.
-->

<svg width="13" height="13" viewBox="0 0 13 13" fill="none" xmlns="http://www.w3.org/2000/svg">
<path fill-rule="evenodd" clip-rule="evenodd" d="M2.5 6C3.32843 6 4 5.32843 4 4.5C4 3.67157 3.32843 3 2.5 3C1.67157 3 1 3.67157 1 4.5C1 5.32843 1.67157 6 2.5 6ZM2.5 10C3.32843 10 4 9.32843 4 8.5C4 7.67157 3.32843 7 2.5 7C1.67157 7 1 7.67157 1 8.5C1 9.32843 1.67157 10 2.5 10ZM8 4.5C8 5.32843 7.32843 6 6.5 6C5.67157 6 5 5.32843 5 4.5C5 3.67157 5.67157 3 6.5 3C7.32843 3 8 3.67157 8 4.5ZM6.5 10C7.32843 10 8 9.32843 8 8.5C8 7.67157 7.32843 7 6.5 7C5.67157 7 5 7.67157 5 8.5C5 9.32843 5.67157 10 6.5 10ZM12 4.5C12 5.32843 11.3284 6 10.5 6C9.67157 6 9 5.32843 9 4.5C9 3.67157 9.67157 3 10.5 3C11.3284 3 12 3.67157 12 4.5ZM10.5 10C11.3284 10 12 9.32843 12 8.5C12 7.67157 11.3284 7 10.5 7C9.67157 7 9 7.67157 9 8.5C9 9.32843 9.67157 10 10.5 10Z" fill="white"/>
</svg>
