<!--
  Copyright (C) 2021 - 2024 Budislav Stepanov

  This file is part of Anthem.

  Anthem is free software: you can redistribute it and/or modify
  it under the terms of the GNU General Public License as published by
  the Free Software Foundation, either version 3 of the License, or
  (at your option) any later version.

  Anthem is distributed in the hope that it will be useful,
  but WITHOUT ANY WARRANTY; without even the implied warranty of
  MERCHANTABILITY or FITNESS FOR A PARTICULAR PURPOSE. See the GNU
  General Public License for more details.

  You should have received a copy of the GNU General Public License
  along with Anthem. If not, see <https://www.gnu.org/licenses/>.
-->

<svg width="13" height="13" viewBox="0 0 13 13" fill="none" xmlns="http://www.w3.org/2000/svg">
<path fill-rule="evenodd" clip-rule="evenodd" d="M2 1C0.895431 1 0 1.89543 0 3V10C0 11.1046 0.89543 12 2 12H11C12.1046 12 13 11.1046 13 10V3C13 1.89543 12.1046 1 11 1H2ZM4 2C3.44772 2 3 2.44772 3 3V10C3 10.5523 3.44772 11 4 11H11C11.5523 11 12 10.5523 12 10V3C12 2.44772 11.5523 2 11 2H4Z" fill="#D9D9D9"/>
</svg>
