<!--
    Copyright (C) 2021 Joshua Wade, Budislav Stepanov

    This file is part of Anthem.

    Anthem is free software: you can redistribute it and/or modify
    it under the terms of the GNU General Public License as published by
    the Free Software Foundation, either version 3 of the License, or
    (at your option) any later version.

    Anthem is distributed in the hope that it will be useful,
    but WITHOUT ANY WARRANTY; without even the implied warranty of
    MERCHANTABILITY or FITNESS FOR A PARTICULAR PURPOSE. See the GNU
    General Public License for more details.

    You should have received a copy of the GNU General Public License
    along with Anthem. If not, see <https://www.gnu.org/licenses/>.
-->

<svg width="16" height="16" viewBox="0 0 16 16" fill="none" xmlns="http://www.w3.org/2000/svg">
<path fill-rule="evenodd" clip-rule="evenodd" d="M4.4 0.2C4.84183 -0.131371 5.46863 -0.0418278 5.8 0.4C6.13137 0.841828 6.04183 1.46863 5.6 1.8L4 3H10C10.5523 3 11 3.44772 11 4C11 4.55228 10.5523 5 10 5H4L5.6 6.2C6.04183 6.53137 6.13137 7.15817 5.8 7.6C5.46863 8.04183 4.84183 8.13137 4.4 7.8L0.4 4.8C0.148194 4.61115 0 4.31476 0 4C0 3.68524 0.148194 3.38885 0.4 3.2L4.4 0.2Z" fill="white"/>
<path fill-rule="evenodd" clip-rule="evenodd" d="M11.6 8.20006C11.1582 7.86869 10.5314 7.95823 10.2 8.40006C9.86863 8.84189 9.95817 9.46869 10.4 9.80006L12 11.0001H6C5.44772 11.0001 5 11.4478 5 12.0001C5 12.5523 5.44772 13.0001 6 13.0001H12L10.4 14.2001C9.95817 14.5314 9.86863 15.1582 10.2 15.6001C10.5314 16.0419 11.1582 16.1314 11.6 15.8001L15.6 12.8001C15.8518 12.6112 16 12.3148 16 12.0001C16 11.6853 15.8518 11.3889 15.6 11.2001L11.6 8.20006Z" fill="white"/>
</svg>
