<svg width="16" height="16" viewBox="0 0 16 16" fill="none" xmlns="http://www.w3.org/2000/svg">
<path d="M6.85355 5.14645C6.65829 4.95118 6.34171 4.95118 6.14645 5.14645C5.95118 5.34171 5.95118 5.65829 6.14645 5.85355L6.85355 5.14645ZM9.5 8.5L9.85355 8.85355C10.0488 8.65829 10.0488 8.34171 9.85355 8.14645L9.5 8.5ZM6.14645 11.1464C5.95118 11.3417 5.95118 11.6583 6.14645 11.8536C6.34171 12.0488 6.65829 12.0488 6.85355 11.8536L6.14645 11.1464ZM6.14645 5.85355L9.14645 8.85355L9.85355 8.14645L6.85355 5.14645L6.14645 5.85355ZM9.14645 8.14645L6.14645 11.1464L6.85355 11.8536L9.85355 8.85355L9.14645 8.14645Z" fill="#9DB9CC"/>
<path d="M3.5 8C3.22386 8 3 8.22386 3 8.5C3 8.77614 3.22386 9 3.5 9V8ZM9.5 8H3.5V9H9.5V8Z" fill="#9DB9CC"/>
<path d="M9 3.5L12.5 3.5V13.5H9" stroke="#9DB9CC"/>
</svg>
