<!--
  Copyright (C) 2022 Budislav Stepanov, Joshua Wade

  This file is part of Anthem.

  Anthem is free software: you can redistribute it and/or modify
  it under the terms of the GNU General Public License as published by
  the Free Software Foundation, either version 3 of the License, or
  (at your option) any later version.

  Anthem is distributed in the hope that it will be useful,
  but WITHOUT ANY WARRANTY; without even the implied warranty of
  MERCHANTABILITY or FITNESS FOR A PARTICULAR PURPOSE. See the GNU
  General Public License for more details.

  You should have received a copy of the GNU General Public License
  along with Anthem. If not, see <https://www.gnu.org/licenses/>.
-->

<svg width="16" height="16" viewBox="0 0 16 16" fill="none" xmlns="http://www.w3.org/2000/svg">
<path d="M2.5 6.5V6C2.22386 6 2 6.22386 2 6.5H2.5ZM2.5 9.5H2C2 9.77614 2.22386 10 2.5 10V9.5ZM6.5 11.5L6.14645 11.8536C6.28945 11.9966 6.5045 12.0393 6.69134 11.9619C6.87818 11.8845 7 11.7022 7 11.5H6.5ZM6.5 4.5H7C7 4.29777 6.87818 4.11545 6.69134 4.03806C6.5045 3.96067 6.28945 4.00345 6.14645 4.14645L6.5 4.5ZM4.79289 9.79289L4.43934 10.1464L4.79289 9.79289ZM2 6.5V9.5H3V6.5H2ZM2.5 10H4.08579V9H2.5V10ZM4.43934 10.1464L6.14645 11.8536L6.85355 11.1464L5.14645 9.43934L4.43934 10.1464ZM7 11.5V4.5H6V11.5H7ZM6.14645 4.14645L4.43934 5.85355L5.14645 6.56066L6.85355 4.85355L6.14645 4.14645ZM4.08579 6H2.5V7H4.08579V6ZM4.43934 5.85355C4.34557 5.94732 4.21839 6 4.08579 6V7C4.48361 7 4.86514 6.84197 5.14645 6.56066L4.43934 5.85355ZM4.08579 10C4.21839 10 4.34557 10.0527 4.43934 10.1464L5.14645 9.43934C4.86514 9.15804 4.48361 9 4.08579 9V10Z" fill="#9DB9CC"/>
<path d="M13.5 6.5V6C13.7761 6 14 6.22386 14 6.5H13.5ZM13.5 9.5H14C14 9.77614 13.7761 10 13.5 10V9.5ZM9.5 11.5L9.85355 11.8536C9.71055 11.9966 9.4955 12.0393 9.30866 11.9619C9.12182 11.8845 9 11.7022 9 11.5H9.5ZM9.5 4.5H9C9 4.29777 9.12182 4.11545 9.30866 4.03806C9.4955 3.96067 9.71055 4.00345 9.85355 4.14645L9.5 4.5ZM11.2071 9.79289L11.5607 10.1464L11.2071 9.79289ZM14 6.5V9.5H13V6.5H14ZM13.5 10H11.9142V9H13.5V10ZM11.5607 10.1464L9.85355 11.8536L9.14645 11.1464L10.8536 9.43934L11.5607 10.1464ZM9 11.5V4.5H10V11.5H9ZM9.85355 4.14645L11.5607 5.85355L10.8536 6.56066L9.14645 4.85355L9.85355 4.14645ZM11.9142 6H13.5V7H11.9142V6ZM11.5607 5.85355C11.6544 5.94732 11.7816 6 11.9142 6V7C11.5164 7 11.1349 6.84197 10.8536 6.56066L11.5607 5.85355ZM11.9142 10C11.7816 10 11.6544 10.0527 11.5607 10.1464L10.8536 9.43934C11.1349 9.15804 11.5164 9 11.9142 9V10Z" fill="#9DB9CC"/>
</svg>
