<!--
  Copyright (C) 2022 Budislav Stepanov, Joshua Wade

  This file is part of Anthem.

  Anthem is free software: you can redistribute it and/or modify
  it under the terms of the GNU General Public License as published by
  the Free Software Foundation, either version 3 of the License, or
  (at your option) any later version.

  Anthem is distributed in the hope that it will be useful,
  but WITHOUT ANY WARRANTY; without even the implied warranty of
  MERCHANTABILITY or FITNESS FOR A PARTICULAR PURPOSE. See the GNU
  General Public License for more details.

  You should have received a copy of the GNU General Public License
  along with Anthem. If not, see <https://www.gnu.org/licenses/>.
-->

<svg width="16" height="16" viewBox="0 0 16 16" fill="none" xmlns="http://www.w3.org/2000/svg">
<path fill-rule="evenodd" clip-rule="evenodd" d="M7.5 2C7.5 3.60069 6.81479 4.86862 6.10957 5.75015C5.75775 6.18993 5.40558 6.52737 5.14249 6.75393C5.01121 6.86698 4.90287 6.95175 4.82891 7.00723C4.79195 7.03495 4.76365 7.05529 4.74544 7.06814L4.72591 7.08175L4.72265 7.08397L4.72236 7.08417L4.72217 7.08429L4.72213 7.08432L4.72188 7.08449L3.34861 8H5H6.5V11.0009C5.63164 11.0062 4.66129 11.0411 3.86264 11.2692C3.37726 11.4079 2.90831 11.6299 2.55837 12.0004C2.1967 12.3834 2 12.8851 2 13.5V14H2.5H8H13.5H14V13.5C14 12.8851 13.8033 12.3834 13.4416 12.0004C13.0917 11.6299 12.6227 11.4079 12.1374 11.2692C11.3387 11.0411 10.3684 11.0062 9.5 11.0009V8H11H12.6514L11.2781 7.08449L11.2779 7.08432L11.2778 7.08429L11.2776 7.08417L11.2774 7.08397L11.2741 7.08175L11.2546 7.06814C11.2364 7.05529 11.2081 7.03495 11.1711 7.00723C11.0971 6.95175 10.9888 6.86698 10.8575 6.75393C10.5944 6.52737 10.2423 6.18993 9.89043 5.75015C9.18521 4.86862 8.5 3.60069 8.5 2H7.5ZM8 4.51077C7.6962 5.25002 7.29078 5.87442 6.89043 6.37485C6.70286 6.60931 6.51537 6.81794 6.3382 7H7H7.5V7.5V11.5V12H7C5.97874 12 4.93113 12.004 4.13736 12.2308C3.74774 12.3421 3.46669 12.4951 3.28538 12.6871C3.20413 12.7731 3.13522 12.8749 3.08548 13H8H12.9145C12.8648 12.8749 12.7959 12.7731 12.7146 12.6871C12.5333 12.4951 12.2523 12.3421 11.8626 12.2308C11.0689 12.004 10.0213 12 9 12H8.5V11.5V7.5V7H9H9.6618C9.48463 6.81794 9.29714 6.60931 9.10957 6.37485C8.70922 5.87442 8.3038 5.25002 8 4.51077Z" fill="#9DB9CC"/>
</svg>
