<!--
  Copyright (C) 2021 - 2024 Budislav Stepanov

  This file is part of Anthem.

  Anthem is free software: you can redistribute it and/or modify
  it under the terms of the GNU General Public License as published by
  the Free Software Foundation, either version 3 of the License, or
  (at your option) any later version.

  Anthem is distributed in the hope that it will be useful,
  but WITHOUT ANY WARRANTY; without even the implied warranty of
  MERCHANTABILITY or FITNESS FOR A PARTICULAR PURPOSE. See the GNU
  General Public License for more details.

  You should have received a copy of the GNU General Public License
  along with Anthem. If not, see <https://www.gnu.org/licenses/>.
-->

<svg width="16" height="16" viewBox="0 0 16 16" fill="none" xmlns="http://www.w3.org/2000/svg">
<path d="M7 2.5C7 2.22386 6.77614 2 6.5 2C6.22386 2 6 2.22386 6 2.5V14.5C6 14.7761 6.22386 15 6.5 15C6.77614 15 7 14.7761 7 14.5V2.5Z" fill="#CFCFCF"/>
<path d="M4.5 7C4.77614 7 5 7.22386 5 7.5V14.5C5 14.7761 4.77614 15 4.5 15C4.22386 15 4 14.7761 4 14.5V7.5C4 7.22386 4.22386 7 4.5 7Z" fill="#CFCFCF"/>
<path d="M2.5 9C2.77614 9 3 9.22386 3 9.5V14.5C3 14.7761 2.77614 15 2.5 15C2.22386 15 2 14.7761 2 14.5V9.5C2 9.22386 2.22386 9 2.5 9Z" fill="#CFCFCF"/>
<path d="M8.5 4C8.77614 4 9 4.22386 9 4.5V14.5C9 14.7761 8.77614 15 8.5 15C8.22386 15 8 14.7761 8 14.5V4.5C8 4.22386 8.22386 4 8.5 4Z" fill="#CFCFCF"/>
<path d="M11 2.5C11 2.22386 10.7761 2 10.5 2C10.2239 2 10 2.22386 10 2.5V14.5C10 14.7761 10.2239 15 10.5 15C10.7761 15 11 14.7761 11 14.5V2.5Z" fill="#CFCFCF"/>
<path d="M12.5 7C12.7761 7 13 7.22386 13 7.5V14.5C13 14.7761 12.7761 15 12.5 15C12.2239 15 12 14.7761 12 14.5V7.5C12 7.22386 12.2239 7 12.5 7Z" fill="#CFCFCF"/>
<path d="M15 9.5C15 9.22386 14.7761 9 14.5 9C14.2239 9 14 9.22386 14 9.5V14.5C14 14.7761 14.2239 15 14.5 15C14.7761 15 15 14.7761 15 14.5V9.5Z" fill="#CFCFCF"/>
</svg>
