<svg width="16" height="16" viewBox="0 0 16 16" fill="none" xmlns="http://www.w3.org/2000/svg">
<path d="M2.19799 7.23828H2.87475C3.19701 7.23828 3.43578 7.15771 3.59105 6.99658C3.74633 6.83545 3.82397 6.62158 3.82397 6.35498C3.82397 6.09717 3.74633 5.89648 3.59105 5.75293C3.43871 5.60938 3.22777 5.5376 2.95824 5.5376C2.71508 5.5376 2.51147 5.60498 2.3474 5.73975C2.18334 5.87158 2.10131 6.04443 2.10131 6.2583H0.831289C0.831289 5.92432 0.920645 5.62549 1.09936 5.36182C1.281 5.09521 1.53295 4.88721 1.85522 4.73779C2.18041 4.58838 2.53783 4.51367 2.92748 4.51367C3.60424 4.51367 4.13451 4.67627 4.5183 5.00146C4.90209 5.32373 5.09398 5.76904 5.09398 6.3374C5.09398 6.63037 5.00463 6.8999 4.82592 7.146C4.64721 7.39209 4.41283 7.58105 4.12279 7.71289C4.48314 7.8418 4.75121 8.03516 4.92699 8.29297C5.1057 8.55078 5.19506 8.85547 5.19506 9.20703C5.19506 9.77539 4.98705 10.231 4.57104 10.5737C4.15795 10.9165 3.6101 11.0879 2.92748 11.0879C2.28881 11.0879 1.76586 10.9194 1.35863 10.5825C0.954336 10.2456 0.752188 9.80029 0.752188 9.24658H2.02221C2.02221 9.48682 2.11156 9.68311 2.29027 9.83545C2.47191 9.98779 2.69457 10.064 2.95824 10.064C3.26 10.064 3.49584 9.98486 3.66576 9.82666C3.83861 9.66553 3.92504 9.45312 3.92504 9.18945C3.92504 8.55078 3.57348 8.23145 2.87035 8.23145H2.19799V7.23828ZM5.69762 10.376C5.69762 10.1738 5.765 10.0098 5.89977 9.88379C6.03746 9.75781 6.20885 9.69482 6.41393 9.69482C6.62193 9.69482 6.79332 9.75781 6.92809 9.88379C7.06578 10.0098 7.13463 10.1738 7.13463 10.376C7.13463 10.5752 7.06725 10.7378 6.93248 10.8638C6.79772 10.9868 6.62486 11.0483 6.41393 11.0483C6.20592 11.0483 6.03453 10.9868 5.89977 10.8638C5.765 10.7378 5.69762 10.5752 5.69762 10.376ZM11.0176 11H7.60643V10.3232L9.21629 8.60742C9.43732 8.36589 9.60024 8.15511 9.70506 7.9751C9.81216 7.79508 9.8657 7.62419 9.8657 7.4624C9.8657 7.24137 9.80988 7.0682 9.69822 6.94287C9.58657 6.81527 9.42706 6.75146 9.21971 6.75146C8.9964 6.75146 8.81981 6.82894 8.68992 6.98389C8.56232 7.13656 8.49852 7.33822 8.49852 7.58887H7.50731C7.50731 7.28581 7.57908 7.00895 7.72264 6.7583C7.86847 6.50765 8.07355 6.31169 8.33787 6.17041C8.60219 6.02686 8.90184 5.95508 9.2368 5.95508C9.74949 5.95508 10.1471 6.07812 10.4297 6.32422C10.7145 6.57031 10.8569 6.91781 10.8569 7.3667C10.8569 7.61279 10.7931 7.86344 10.6655 8.11865C10.5379 8.37386 10.3192 8.67122 10.0093 9.01074L8.87791 10.2036H11.0176V11ZM11.3332 10.5146C11.3332 10.3574 11.3857 10.2298 11.4905 10.1318C11.5976 10.0339 11.7309 9.98486 11.8904 9.98486C12.0522 9.98486 12.1855 10.0339 12.2903 10.1318C12.3974 10.2298 12.4509 10.3574 12.4509 10.5146C12.4509 10.6696 12.3985 10.7961 12.2937 10.894C12.1889 10.9897 12.0544 11.0376 11.8904 11.0376C11.7286 11.0376 11.5953 10.9897 11.4905 10.894C11.3857 10.7961 11.3332 10.6696 11.3332 10.5146ZM14.9014 11H14.0547V7.73633L13.0439 8.0498V7.36133L14.8105 6.72852H14.9014V11Z" fill="#9DB9CC"/>
</svg>
