<svg width="16" height="16" viewBox="0 0 16 16" fill="none" xmlns="http://www.w3.org/2000/svg">
<rect x="1" y="1" width="1" height="6" fill="#9DB9CC"/>
<rect x="1" y="7" width="9" height="1" fill="#9DB9CC"/>
<rect x="2" y="1" width="8" height="1" fill="#9DB9CC"/>
<rect x="4" y="1" width="1" height="4" fill="#9DB9CC"/>
<rect x="9" y="1" width="1" height="6" fill="#9DB9CC"/>
<rect x="6" y="1" width="1" height="4" fill="#9DB9CC"/>
<mask id="path-7-inside-1_1376_10534" fill="white">
<path d="M14.9305 12.194C14.7617 13.0285 14.2945 13.7728 13.6164 14.2877C12.9382 14.8025 12.0957 15.0525 11.2465 14.9908C10.3974 14.9292 9.59978 14.5601 9.00314 13.9527C8.4065 13.3453 8.05172 12.5413 8.00522 11.6911C7.95873 10.841 8.22371 10.0031 8.75055 9.33424C9.27739 8.66541 10.03 8.21155 10.8673 8.05765C11.7047 7.90375 12.5695 8.06037 13.2997 8.49817C14.0299 8.93596 14.5755 9.62492 14.8344 10.436L13.8838 10.7394C13.6987 10.1595 13.3087 9.66695 12.7866 9.35396C12.2646 9.04098 11.6464 8.92901 11.0477 9.03904C10.4491 9.14906 9.91104 9.47353 9.5344 9.95168C9.15775 10.4298 8.96831 11.0289 9.00155 11.6366C9.03479 12.2444 9.28843 12.8192 9.71497 13.2535C10.1415 13.6877 10.7117 13.9515 11.3188 13.9956C11.9259 14.0397 12.5282 13.861 13.013 13.4929C13.4978 13.1249 13.8318 12.5927 13.9525 11.9961L14.9305 12.194Z"/>
</mask>
<path d="M14.9305 12.194C14.7617 13.0285 14.2945 13.7728 13.6164 14.2877C12.9382 14.8025 12.0957 15.0525 11.2465 14.9908C10.3974 14.9292 9.59978 14.5601 9.00314 13.9527C8.4065 13.3453 8.05172 12.5413 8.00522 11.6911C7.95873 10.841 8.22371 10.0031 8.75055 9.33424C9.27739 8.66541 10.03 8.21155 10.8673 8.05765C11.7047 7.90375 12.5695 8.06037 13.2997 8.49817C14.0299 8.93596 14.5755 9.62492 14.8344 10.436L13.8838 10.7394C13.6987 10.1595 13.3087 9.66695 12.7866 9.35396C12.2646 9.04098 11.6464 8.92901 11.0477 9.03904C10.4491 9.14906 9.91104 9.47353 9.5344 9.95168C9.15775 10.4298 8.96831 11.0289 9.00155 11.6366C9.03479 12.2444 9.28843 12.8192 9.71497 13.2535C10.1415 13.6877 10.7117 13.9515 11.3188 13.9956C11.9259 14.0397 12.5282 13.861 13.013 13.4929C13.4978 13.1249 13.8318 12.5927 13.9525 11.9961L14.9305 12.194Z" stroke="#9DB9CC" stroke-width="2" mask="url(#path-7-inside-1_1376_10534)"/>
<path d="M14.5 8V10.5H12" stroke="#9DB9CC"/>
</svg>
