<svg width="16" height="16" viewBox="0 0 16 16" fill="none" xmlns="http://www.w3.org/2000/svg">
<path fill-rule="evenodd" clip-rule="evenodd" d="M4.01281 1.38757C4.06516 1.1607 4.26718 1 4.5 1H10.5C10.7328 1 10.9348 1.1607 10.9872 1.38757L11.7771 4.81061L14.1263 2.1678C14.3098 1.96141 14.6258 1.94282 14.8322 2.12628C15.0386 2.30974 15.0572 2.62577 14.8737 2.83217L12.0529 6.00558L13.9872 14.3876C14.0215 14.536 13.9862 14.692 13.8913 14.8113C13.7964 14.9305 13.6524 15 13.5 15H1.5C1.34763 15 1.20357 14.9305 1.10872 14.8113C1.01386 14.692 0.978546 14.536 1.01281 14.3876L4.01281 1.38757ZM10.1022 2L10.9624 5.72721L6.27547 11H2.82084L4.89776 2H10.1022ZM2.59007 12L2.12853 14H12.8715L12.4099 12H6.50218C6.50061 12 6.49903 12 6.49746 12H2.59007ZM7.61342 11H12.1792L11.2381 6.92218L7.61342 11Z" fill="#9DB9CC"/>
</svg>
