<!--
  Copyright (C) 2021 - 2024 Budislav Stepanov

  This file is part of Anthem.

  Anthem is free software: you can redistribute it and/or modify
  it under the terms of the GNU General Public License as published by
  the Free Software Foundation, either version 3 of the License, or
  (at your option) any later version.

  Anthem is distributed in the hope that it will be useful,
  but WITHOUT ANY WARRANTY; without even the implied warranty of
  MERCHANTABILITY or FITNESS FOR A PARTICULAR PURPOSE. See the GNU
  General Public License for more details.

  You should have received a copy of the GNU General Public License
  along with Anthem. If not, see <https://www.gnu.org/licenses/>.
-->

<svg width="16" height="16" viewBox="0 0 16 16" fill="none" xmlns="http://www.w3.org/2000/svg">
<path fill-rule="evenodd" clip-rule="evenodd" d="M12 9.5C12 9.22386 11.7761 9 11.5 9C11.2239 9 11 9.22386 11 9.5V11H9.5C9.22386 11 9 11.2239 9 11.5C9 11.7761 9.22386 12 9.5 12H11V13.5C11 13.7761 11.2239 14 11.5 14C11.7761 14 12 13.7761 12 13.5V12H13.5C13.7761 12 14 11.7761 14 11.5C14 11.2239 13.7761 11 13.5 11H12V9.5Z" fill="#CFCFCF"/>
<path d="M2.5 13.5L3.5 4.5L5.5 11.5L7.5 2.5L9.5 8.5L10.5 5.5L11.5 7.5" stroke="#CFCFCF" stroke-linecap="round" stroke-linejoin="round"/>
</svg>
