<!--
  Copyright (C) 2022 Budislav Stepanov, Joshua Wade

  This file is part of Anthem.

  Anthem is free software: you can redistribute it and/or modify
  it under the terms of the GNU General Public License as published by
  the Free Software Foundation, either version 3 of the License, or
  (at your option) any later version.

  Anthem is distributed in the hope that it will be useful,
  but WITHOUT ANY WARRANTY; without even the implied warranty of
  MERCHANTABILITY or FITNESS FOR A PARTICULAR PURPOSE. See the GNU
  General Public License for more details.

  You should have received a copy of the GNU General Public License
  along with Anthem. If not, see <https://www.gnu.org/licenses/>.
-->

<svg width="16" height="16" viewBox="0 0 16 16" fill="none" xmlns="http://www.w3.org/2000/svg">
<path fill-rule="evenodd" clip-rule="evenodd" d="M4 2H4.5H6C7.87423 2 9.44739 3.28903 9.8813 5.02889C11.081 5.2125 12 6.24893 12 7.5V12.5C12 12.7761 12.2239 13 12.5 13H13.5C13.7761 13 14 13.2239 14 13.5C14 13.7761 13.7761 14 13.5 14H12.5C11.6716 14 11 13.3284 11 12.5V7.5C11 6.84656 10.5822 6.29071 9.99911 6.08504C9.95386 8.25492 8.18072 10 6 10H4.5H4V9.5V8H2.5C2.22386 8 2 7.77614 2 7.5C2 7.22386 2.22386 7 2.5 7H4V5H2.5C2.22386 5 2 4.77614 2 4.5C2 4.22386 2.22386 4 2.5 4H4V2.5V2ZM5 7.5V9H6C7.65685 9 9 7.65685 9 6C9 4.34315 7.65685 3 6 3H5V4.5V7.5Z" fill="#9DB9CC"/>
</svg>
