<!--
  Copyright (C) 2022 Budislav Stepanov, Joshua Wade

  This file is part of Anthem.

  Anthem is free software: you can redistribute it and/or modify
  it under the terms of the GNU General Public License as published by
  the Free Software Foundation, either version 3 of the License, or
  (at your option) any later version.

  Anthem is distributed in the hope that it will be useful,
  but WITHOUT ANY WARRANTY; without even the implied warranty of
  MERCHANTABILITY or FITNESS FOR A PARTICULAR PURPOSE. See the GNU
  General Public License for more details.

  You should have received a copy of the GNU General Public License
  along with Anthem. If not, see <https://www.gnu.org/licenses/>.
-->

<svg width="16" height="16" viewBox="0 0 16 16" fill="none" xmlns="http://www.w3.org/2000/svg">
<mask id="path-1-inside-1_1288_10282" fill="white">
<path fill-rule="evenodd" clip-rule="evenodd" d="M8.00124 1.00003C8.00945 1.00001 8.01767 1 8.0259 1V1.0001C16.8096 1.03603 15.4444 10.6747 13.7156 15H10.598C10.6702 14.5136 10.7721 13.9692 10.88 13.3924C11.5475 9.82545 12.4472 5.01773 8.00124 5.00005C3.55412 5.01774 4.45359 9.82794 5.12063 13.3952C5.22829 13.971 5.3299 14.5144 5.402 15H2.28437C0.555586 10.6747 -0.807093 1.03603 7.97657 1.0001V1C7.9848 1 7.99302 1.00001 8.00124 1.00003Z"/>
</mask>
<path d="M8.0259 1H9.0259V0H8.0259V1ZM8.00124 1.00003L7.99919 2.00003L8.00327 2.00002L8.00124 1.00003ZM8.0259 1.0001H7.0259V1.99602L8.02181 2.00009L8.0259 1.0001ZM13.7156 15V16H14.3928L14.6442 15.3711L13.7156 15ZM10.598 15L9.60882 14.8532L9.43856 16H10.598V15ZM10.88 13.3924L9.89705 13.2085H9.89705L10.88 13.3924ZM8.00124 5.00005L8.00521 4.00003L7.99726 4.00006L8.00124 5.00005ZM5.12063 13.3952L4.13767 13.579L5.12063 13.3952ZM5.402 15V16H6.56142L6.39116 14.8532L5.402 15ZM2.28437 15L1.35579 15.3711L1.60714 16H2.28437V15ZM7.97657 1.0001L7.98066 2.00009L8.97657 1.99602V1.0001H7.97657ZM7.97657 1V0H6.97657V1H7.97657ZM8.0259 0C8.01699 0 8.00809 9.05991e-06 7.99919 2.72393e-05L8.00327 2.00002C8.01081 2.00001 8.01835 2 8.0259 2V0ZM9.0259 1.0001V1H7.0259V1.0001H9.0259ZM8.02181 2.00009C10.0281 2.0083 11.3338 2.55977 12.1931 3.3364C13.0631 4.12268 13.5855 5.23928 13.8292 6.57151C14.3238 9.27462 13.6118 12.5654 12.787 14.6289L14.6442 15.3711C15.5482 13.1094 16.3832 9.41814 15.7966 6.2116C15.4997 4.589 14.8246 3.01886 13.5341 1.85261C12.2331 0.676714 10.4155 0.00986749 8.02999 0.000109076L8.02181 2.00009ZM13.7156 14H10.598V16H13.7156V14ZM11.5871 15.1468C11.656 14.6827 11.7541 14.1581 11.8629 13.5764L9.89705 13.2085C9.79005 13.7803 9.68434 14.3444 9.60882 14.8532L11.5871 15.1468ZM11.8629 13.5764C12.1867 11.8461 12.6247 9.56868 12.3471 7.71698C12.2046 6.76619 11.8594 5.81193 11.1129 5.09564C10.3513 4.36494 9.30182 4.00521 8.00521 4.00006L7.99726 6.00004C8.92363 6.00373 9.42889 6.25159 9.72821 6.53879C10.0425 6.84038 10.2644 7.31431 10.3692 8.01352C10.5864 9.46185 10.2408 11.3718 9.89705 13.2085L11.8629 13.5764ZM6.10359 13.2114C5.76013 11.3746 5.41467 9.46393 5.63206 8.0149C5.73701 7.31531 5.95901 6.84101 6.27359 6.53914C6.57313 6.25171 7.07862 6.00373 8.00521 6.00004L7.99726 4.00006C6.70029 4.00522 5.65055 4.36514 4.88884 5.09607C4.14216 5.81257 3.79688 6.76709 3.65419 7.71817C3.3763 9.57049 3.81409 11.8486 4.13767 13.579L6.10359 13.2114ZM6.39116 14.8532C6.31576 14.3453 6.21033 13.7822 6.10359 13.2114L4.13767 13.579C4.24626 14.1597 4.34404 14.6834 4.41284 15.1468L6.39116 14.8532ZM2.28437 16H5.402V14H2.28437V16ZM7.97248 0.000109076C5.58693 0.00986749 3.7693 0.676716 2.46801 1.85253C1.17739 3.01872 0.501851 4.5888 0.204664 6.2114C-0.382632 9.41795 0.451711 13.1092 1.35579 15.3711L3.21294 14.6289C2.38824 12.5655 1.67685 9.27481 2.17194 6.57171C2.41594 5.23949 2.93863 4.12282 3.80888 3.33648C4.66847 2.55976 5.97437 2.0083 7.98066 2.00009L7.97248 0.000109076ZM8.97657 1.0001V1H6.97657V1.0001H8.97657ZM7.97657 2C7.98412 2 7.99166 2.00001 7.99919 2.00002L8.00327 2.72393e-05C7.99438 9.05991e-06 7.98548 0 7.97657 0V2Z" fill="#9DB9CC" mask="url(#path-1-inside-1_1288_10282)"/>
<path d="M2 10.5H4" stroke="#9DB9CC"/>
<path d="M12 10.5H14" stroke="#9DB9CC"/>
</svg>
